<?xml version="1.0" encoding="utf-8"?>
<!-- Generator: Adobe Illustrator 19.0.0, SVG Export Plug-In . SVG Version: 6.00 Build 0)  -->
<svg version="1.1"
	 id="svg8" xmlns:inkscape="http://www.inkscape.org/namespaces/inkscape" xmlns:sodipodi="http://sodipodi.sourceforge.net/DTD/sodipodi-0.dtd" xmlns:dc="http://purl.org/dc/elements/1.1/" xmlns:cc="http://creativecommons.org/ns#" xmlns:svg="http://www.w3.org/2000/svg" xmlns:rdf="http://www.w3.org/1999/02/22-rdf-syntax-ns#" sodipodi:docname="MySignature.svg" inkscape:version="0.92.4 (5da689c313, 2019-01-14)"
	 xmlns="http://www.w3.org/2000/svg" xmlns:xlink="http://www.w3.org/1999/xlink" x="0px" y="0px" viewBox="-117 281.4 376.9 230.6"
	 style="enable-background:new -117 281.4 376.9 230.6;" xml:space="preserve">
<style type="text/css">
	.st0{fill:#FFFFFF;}
	.st1{fill:#C6C6C6;}
</style>
<sodipodi:namedview  inkscape:cy="406.45061" borderopacity="1.0" pagecolor="#ffffff" inkscape:cx="478.98712" bordercolor="#666666" showgrid="false" inkscape:zoom="0.57769471" id="base" inkscape:window-height="1028" inkscape:window-y="-8" inkscape:window-width="1920" inkscape:current-layer="layer1" inkscape:pageopacity="0.0" inkscape:document-units="mm" inkscape:pageshadow="2" inkscape:window-x="-8" inkscape:window-maximized="1">
	</sodipodi:namedview>
<g>
	<g>
		<path class="st0" d="M0.7,334.5c0.5,0,0.9-0.2,1.2-0.5c0.3-0.4,0.3-0.9,0.1-1.3c-0.2-0.4-0.6-0.6-1.1-0.6l0,0
			c-12.3-0.8-25.4,0-38.9,2.6c-0.1-0.3-0.4-0.5-0.7-0.6c-0.6-0.2-1.2,0-1.5,0.6c-0.1,0.2-0.2,0.3-0.3,0.4c0,0.1-0.1,0.1-0.1,0.2
			c-5.7,1.1-11.6,2.6-17.7,4.4c-15.7,4.9-33.4,10.5-48.4,20.3c-0.7,0.5-0.7,1.3-0.4,1.8c0.3,0.5,1.1,0.8,1.7,0.3
			c14.5-9.4,31.3-14.7,47.6-19.9l0.3-0.1c5.4-1.6,10.9-2.9,15.2-3.8c-5.9,10.2-11.2,20.6-16.1,30.4c-3.6,7.4-7,15.3-10.3,23.9
			c-0.2,0.5-0.1,0.9,0.2,1.3c0.3,0.3,0.6,0.5,1,0.5c0.1,0,0.2,0,0.2,0c0.4-0.1,0.8-0.4,0.9-0.8c3.4-8.8,6.8-16.6,10.3-23.7
			c5.2-10.4,10.9-21.5,17.2-32.3C-25.4,334.7-12,333.7,0.7,334.5z"/>
		<path class="st0" d="M-38,358.2c-0.5,0-0.9,0.4-1.1,0.8l0,0c-1.8,5.5-3.7,11-5.7,16.3c-0.6,1.6-1.2,3.2-1.7,4.8l-0.2,0.7
			c-0.7,1.9-0.7,1.9-0.9,2.7c-0.1,0.4-0.3,0.9-0.6,1.9c-0.1,0.5,0,0.8,0.1,1.1c0.2,0.3,0.4,0.5,0.8,0.6c0.1,0,0.2,0,0.3,0
			c0.2,0,0.4-0.1,0.6-0.2c0.2-0.1,0.5-0.4,0.6-0.8c0.3-1,0.5-1.5,0.6-1.9c0.2-0.8,0.2-0.8,0.9-2.6l0.2-0.7c0.9-2.6,1.8-5.2,2.7-7.9
			c1.5-4.3,3.1-8.8,4.5-13.2c0.2-0.3,0.2-0.7,0-1C-37,358.4-37.5,358.2-38,358.2z"/>
		<path class="st0" d="M44.4,359.5c-0.1-0.3-0.2-0.5-0.3-0.8l-0.1-0.1c-0.2-0.3-0.4-0.6-0.6-0.9c-0.4-0.6-0.8-1.3-1.3-1.8
			c-3.3-4-8.4-6.8-14.5-7.7h-0.1h-0.1c-0.3,0-0.7,0-1,0.1c-0.5,0-1.1,0-1.6,0.2c-4.4,1.1-6.4,5.7-7.8,9.1l-0.3,0.7
			c-1.3,3.2-2.7,6.5-5.6,8.1c-1.8,0.5-2.9-0.9-4.4-3.1c-0.4-0.6-0.8-1.2-1.2-1.7c-1.3-1.3-2.4-2-3.5-2c-1.6,0-2.9,1.2-4.4,2.7
			c-0.3,0.3-0.6,0.6-1,0.9c-2.2,1.6-3.9,2.9-4.7,3.5c0-3.6,2.4-6.4,5-9.1l0.6-0.5c0.8-0.7,1.5-1.3,2.3-1.9c1.9-0.4,3.8-0.8,5.8-1.4
			l0.6-0.2L5.8,353c-0.1-0.1-0.1-0.2-0.2-0.3c-0.1-0.2-0.2-0.4-0.3-0.6l0.8-0.8H4.9c-0.1,0-0.2,0-0.2,0l-0.2-0.2
			c-0.6-0.3-1.2-0.2-1.6,0c-0.1,0-0.2,0.1-0.3,0.1c-1.3,0.3-2.6,0.8-3.7,1.5c-1.8,0.4-3.7,0.8-5.8,1.3c-5.8,1.3-11.4,2.5-16.5,3.4
			c0.5-3.5,1.2-6.7,2.1-9.8c0.2-0.5,0.1-0.9-0.2-1.3c-0.3-0.4-0.8-0.6-1.2-0.5c-0.5,0.1-0.8,0.4-1,0.9c-1,4-1.8,7.6-2.3,11.1
			c-0.9,0.1-1.7,0.3-2.6,0.4c-1,0.2-1.9,0.3-3,0.5c-0.9,0.2-1.2,0.9-1.1,1.5c0.1,0.3,0.2,0.6,0.5,0.8c0.2,0.1,0.5,0.3,1,0.2l4.7-0.8
			c-0.3,2.3-0.4,4.6-0.5,6.8v0.1c0.2,5.3,0.3,9.1,6.4,10.6h1.1c0.8,0,0.9,0,1.5-0.2c0.3-0.1,0.6-0.1,1.2-0.3c0.5-0.1,0.9-0.4,1-0.8
			s0-1-0.3-1.3c-0.3-0.4-0.8-0.5-1.3-0.3l-0.6,0.2c-0.7,0.2-0.7,0.2-1,0.2c-0.2,0-0.5,0-1.1,0c-4.2-0.9-4.2-3.8-4.3-7.9v-0.2
			c0.1-2.5,0.4-5,0.7-7.4c6.2-1.2,12-2.3,17.5-3.5c0.3-0.1,0.7-0.1,1-0.2c-2.5,2.5-5.1,6-5.2,10.6v0.1v0.1c0.3,1.1,0.9,1.7,1.7,2
			c2,0.6,5-1.9,6.7-3.4c0.2-0.2,0.4-0.3,0.5-0.4c0.4-0.3,0.8-0.7,1.3-1.2c1-1,2.1-2.2,3.1-1.8c0.2,0.1,0.8,0.8,0.9,1l0.1,0.1
			c0.4,0.5,0.9,1.1,1.3,1.7c1.3,1.8,2.7,3.8,5.1,4c0.7,0,1.2-0.1,1.7-0.2h0.1c4-1.8,5.7-5.9,7.2-9.5l0.4-1.1c1.2-3,2.8-6.7,6.1-7.4
			c0.7-0.1,1.3-0.1,1.9-0.1c6.7,1.2,10.8,3.9,14.2,9.2c2.8,7.6-3.6,13.1-8.7,17.4c-5.1,3.9-10.8,6.6-17.7,9.4
			c-0.5,0.2-0.8,0.5-0.8,1c-0.1,0.4,0.1,0.9,0.5,1.2c0.2,0.2,0.5,0.3,0.8,0.3c0.2,0,0.4,0,0.5-0.1c7.7-3.1,13.4-6.2,18.3-9.8
			l0.2-0.2c5-4.3,11.3-9.7,10.1-17.2C44.9,361.1,44.7,360.3,44.4,359.5z"/>
		<path class="st0" d="M188.7,363.1L188.7,363.1c-2.1,0-3-2.5-3.7-4.2l-0.1-0.5c-0.5-1.9-1.1-4.5-2.6-4.8c-0.9-0.2-1.8,0.5-2.8,2
			c-0.5,0.7-0.9,1.5-1.4,2.2c-2.5,4-5,8.2-8.7,11.2c-2.2,1.5-3.7,2.1-4.9,1.7c-1-0.3-1.9-1.3-2.6-3c-1-3.3-1.6-6.8-1.8-10.2
			c0.3-2.4,0.6-4.8,0.8-7.2c0.2-2.3,0.3-3.9,0.4-5.9c0-0.1,0-0.2,0.1-0.3c0.1-0.4,0.3-1.1-0.3-1.4H161c-0.5-0.1-0.9-0.1-1.2,0
			c-0.2-0.1-0.7-0.1-0.9,0.2c-0.1,0.2-0.1,0.4-0.1,0.6c-0.7,1.2-0.8,3-0.8,4.1c0,0.3,0,0.5,0,0.7c-0.4,3-0.5,6.1-0.3,9
			c-0.8,6.5-2.2,11.2-4.4,15.4l-0.2,0.3c-1.9,3.1-4.4,7.2-8.2,6.5c-3.2-2.6-3.5-7.2-3.8-11.3c0-0.6-0.1-1.2-0.1-1.7
			c0.1-5.4,0.3-11.8,0.9-18c1.2-5.2,1-5.9,0.6-6.3c-0.2-0.2-0.4-0.2-0.6-0.2c-0.8,0.1-1.3,0.3-1.6,0.6c-0.2,0.1-0.3,0.3-0.3,0.5
			c-0.1,0.4-0.2,0.8-0.2,1.3c0,0.2,0,0.4-0.1,0.6l-0.3,2.8c0,0.3-0.1,0.6-0.2,0.8c-0.1,0.3-0.1,0.5-0.1,0.7
			c-1.3,5.9-2.7,12.7-5,19.1l-0.1,0.2c-0.4,1-1.3,3-2.3,3.4c-0.3,0.1-0.6,0.1-0.8,0c-0.3-0.3-0.6-0.7-0.9-1.1c-0.7-1-1.5-2.1-2.4-2
			c-0.7,0-1.3,0.6-1.9,1.6c-2.5,4.2-5.7,7.4-9.2,9.3c-2.2,0.6-3.7,0.9-4.5,0.2c3.7-1.6,6.8-4.1,10.2-7c0.3-0.3,0.6-0.6,0.9-0.9
			c2.7-2.5,5.7-5.3,4.8-9.3v-0.1l-0.1-0.1c-0.1-0.1-0.2-0.2-0.2-0.3c-0.2-0.3-0.4-0.6-0.9-0.7c-3-1.4-8.2,2.1-10.2,3.4
			c-4.8,3.7-7.5,7.7-8,12.5c0,0.5,0.1,0.8,0.1,1.2c-0.3,0.1-0.5,0.2-0.8,0.2c-0.2,0-0.4,0-0.6,0c-0.6,0.1-0.8,0.1-1.1-0.3
			c-1.5-1.5-1.6-3.9-1.8-6.2c-0.1-0.9-0.1-1.8-0.3-2.6c-0.1-1.5-0.2-3.1-0.2-4.6c-0.2-5.1-0.4-10.4-1.8-15.5v-0.1
			c-0.1-0.2-0.2-0.5-0.3-0.7c-0.2-0.5-0.5-1.1-0.9-1.6c-0.8-0.8-1.6-1.1-2.5-1c-2.4,0.4-4.4,4.3-5.5,6.7c-0.2,0.4-0.4,0.8-0.5,1
			c-1,2-2,4-3,5.9c-2.1,4.3-4.3,8.8-7,12.8c-0.2,0.2-0.4,0.5-0.7,0.8c-0.4,0.5-0.7,0.9-1.2,1.1c-0.1,0-0.1,0-0.1,0
			c-0.3-0.2-0.9-1-1.4-5.1c0-0.2-0.1-0.4-0.1-0.5c-0.2-2.2-0.4-4.5-0.6-6.8c-0.3-4.5-0.7-9.1-1.5-13.5v-0.1l-0.1-0.1
			c-0.1-0.1-0.3-0.3-0.4-0.5c-0.4-0.5-0.8-1-1.4-1.2c-1.4-0.5-2.7,1.4-3.2,2.2c-0.1,0.1-0.1,0.2-0.2,0.3c-1.5,2.3-2.8,4.8-4,7.2
			c-0.8,1.6-1.7,3.3-2.6,5c-5.2,9.7-10.2,18-15.2,25.6c-0.3,0.4-0.3,0.9-0.1,1.3c0.2,0.4,0.6,0.7,1.1,0.7l0,0c0.4,0,0.9-0.2,1.1-0.7
			c4.9-7.3,9.7-15.5,15.2-25.7c1.1-1.4,2-3.5,3-5.7c1.3-2.9,2.7-5.9,4.4-7.5c0,0.1,0,0.1,0,0.2c0.6,4,0.9,8,1.2,12
			c0.2,2.5,0.4,5,0.7,7.5v0.2c0.3,2.2,0.7,6.3,2.9,7.3c0.9,0.4,1.9,0.3,3-0.5c0.7-0.4,1.2-1,1.6-1.5l0.3-0.3
			c2.9-4.2,5.2-8.9,7.4-13.4c0.9-1.9,1.9-3.9,2.9-5.8c0.1-0.1,0.3-0.5,0.5-0.9c2.6-5,3.6-5.7,3.9-5.6c0.2,0.3,0.5,1.1,0.6,1.4
			s0.2,0.5,0.3,0.6c1.2,4.4,1.4,9.1,1.6,13.7c0.1,1.9,0.2,3.8,0.3,5.7c0.1,0.5,0.1,1.1,0.2,1.7c0.3,3.3,0.8,8.4,4.1,9.5
			c0.4,0.1,0.9,0.2,1.3,0.2c0.3,0,0.5,0,0.8,0.1h0.1h0.1c0.6-0.1,1.1-0.2,1.7-0.4l0,0c1.6,2.5,4.8,2.1,7.7,1.4h0.1
			c4.2-2,7.8-5.5,10.5-10c0.3,0.5,0.8,1,1.5,1.7l0.1,0.1c1,0.6,2,0.8,2.9,0.6c1.9-0.5,3.3-2.8,4.3-5c0.8-2.2,1.5-4.5,2.1-6.7
			c0,1.2,0,2.4,0,3.6v0.2c0.3,5.2,0.7,11.2,5,14.9l0.2,0.1c0.1,0,0.3,0.1,0.4,0.2c0.5,0.2,1,0.4,1.5,0.4l0,0c4.9,0.3,8.2-5.2,10-8.2
			c1.4-2.5,2.4-5.3,3.3-8.7c0.2,1,0.5,2.1,0.8,3.2c1.2,2.7,2.7,4.2,4.4,4.7c1.9,0.5,4.1-0.1,7.1-2.1c4-3.1,6.6-7.4,9.2-11.6
			c0.5-0.8,1.1-1.7,1.6-2.5c0.1-0.1,0.1-0.2,0.2-0.3l0,0c0.2,0.9,0.3,1.2,0.3,1.2l0,0l0,0l0,0l0.1,0.3c0.1,0.3,0.1,0.7,0.3,1.2
			c1,3.8,3,5.8,5.9,6.2c0.3,0,0.6-0.1,0.9-0.4c0.3-0.4,0.3-0.9,0.1-1.4C189.6,363.4,189.2,363.1,188.7,363.1z M110.7,377.7
			c0.4-3.9,2.7-7.4,7-10.6l0.3-0.2c2.1-1.4,4.8-3.3,7.3-3.1c0.5,2.2-1.8,4.2-3.5,5.8c-0.6,0.5-1.1,1-1.5,1.4
			C117.4,373.6,114.3,376.2,110.7,377.7L110.7,377.7z"/>
		<circle class="st0" cx="-36" cy="353.5" r="1.7"/>
		<circle class="st0" cx="182.2" cy="349" r="1.7"/>
		<path class="st0" d="M246.9,361L246.9,361c-3.6-1.3-6.4-2.6-8.8-4.1c-0.9-0.4-4.3-2.5-4.5-3.1c-0.1-0.8,1.9-1.5,3-1.9
			c0.5-0.2,0.8-0.3,1.1-0.4c1.1-0.6,3.7-2.7,3.8-4.7c0.1-0.8-0.2-1.4-0.9-1.9c-0.5-0.4-1.2-0.6-1.9-0.6c-3.3,0.3-7.7,5.7-7.9,5.9
			c-0.1,0.1-0.3,0.4-0.6,0.7c-3.5,4.3-5.8,6.4-7,6.2c-0.1,0-0.4-0.1-0.6-0.8c-0.3-0.9,0.3-2.7,0.6-3.9c0.1-0.4,0.2-0.8,0.3-1.1
			l0.9-5.1c0.1-0.5-0.1-1-0.6-1.2c-0.4-0.2-0.9-0.2-1.3,0c-1.4,0.7-3,2.7-4.2,4.1c-0.4,0.6-0.9,1.2-1.2,1.3
			c-4.7,4.9-9.9,10-16.4,12.9c-2.3,0.9-4.6,1.8-6,1c-0.8-0.5-1.3-1.4-1.6-2.9c0.2-5.4,2.4-10.4,7.3-16.1c0.4-0.4,0.5-0.8,0.4-1.3
			c-0.1-0.5-0.5-0.8-1-0.9c-0.4-0.1-0.9,0.1-1.2,0.4c-3.7,4.4-7.6,10-7.9,17.8c0.4,2.5,1.3,4.2,2.7,5c0.8,0.5,1.7,0.6,2.6,0.6
			c1.8,0,3.8-0.7,5.7-1.4c6.9-3.1,12.5-8.6,17.3-13.5l2-2.3c-0.4,1.9-0.8,3.9-0.9,5.9s0.4,3.4,1.7,4.1c3.2,1.6,6.5-2.2,8.9-5.4
			c0.5,1.4,2.5,2.7,4,3.6c0.4,0.2,0.7,0.4,1,0.6c3.1,2,6.5,3.6,10,4.9c0.6,0.2,1.2-0.2,1.4-0.8C247.7,361.9,247.4,361.3,246.9,361z
			 M237.5,347.2c0,0.2-0.1,0.3-0.1,0.5c-0.1,0.4-0.1,0.8-0.2,1.2c-0.6,0.3-1.2,0.7-1.9,1c-0.3,0.1-0.6,0.3-0.9,0.4s-0.7,0.3-0.9,0.4
			l0,0C234.5,349.5,236.6,347.6,237.5,347.2z"/>
	</g>
	<g>
		<path class="st1" d="M-15.8,453.1h-6.8v-3.2h17.4v3.2H-12v17.3h-3.8L-15.8,453.1L-15.8,453.1z"/>
		<path class="st1" d="M-2.9,451.6c-0.4-0.4-0.7-0.9-0.7-1.6c0-0.6,0.2-1.1,0.7-1.6c0.4-0.4,1-0.6,1.7-0.6s1.2,0.2,1.7,0.6
			c0.4,0.4,0.7,0.9,0.7,1.5s-0.2,1.2-0.7,1.6c-0.4,0.4-1,0.7-1.7,0.7S-2.5,452-2.9,451.6z M-3.1,454.8h3.7v15.6h-3.7V454.8z"/>
		<path class="st1" d="M14.8,469.5c-0.4,0.4-1,0.6-1.6,0.8c-0.6,0.2-1.3,0.3-1.9,0.3c-1.7,0-3-0.4-4-1.3c-0.9-0.9-1.4-2.2-1.4-3.9
			v-7.5H3.3V455h2.6v-3.6h3.7v3.6h4.2v2.9H9.6v7.4c0,0.8,0.2,1.3,0.6,1.7s0.9,0.6,1.6,0.6c0.8,0,1.5-0.2,2-0.6L14.8,469.5z"/>
		<path class="st1" d="M29,456.3c1.2,1.1,1.8,2.8,1.8,5v9.2h-3.5v-2c-0.4,0.7-1.1,1.2-1.9,1.6c-0.8,0.4-1.8,0.5-3,0.5
			s-2.2-0.2-3.1-0.6c-0.9-0.4-1.6-1-2-1.7s-0.7-1.5-0.7-2.4c0-1.4,0.5-2.5,1.6-3.4s2.7-1.3,4.9-1.3h4V461c0-1.1-0.3-1.9-1-2.5
			s-1.6-0.9-2.9-0.9c-0.9,0-1.7,0.1-2.6,0.4c-0.8,0.3-1.6,0.7-2.2,1.1l-1.4-2.7c0.8-0.6,1.8-1.1,3-1.4s2.4-0.5,3.7-0.5
			C26,454.6,27.8,455.1,29,456.3z M25.7,467.3c0.7-0.4,1.2-1,1.5-1.8v-1.8h-3.8c-2.1,0-3.2,0.7-3.2,2.1c0,0.7,0.3,1.2,0.8,1.6
			s1.3,0.6,2.2,0.6C24.2,467.9,25,467.7,25.7,467.3z"/>
		<path class="st1" d="M36.6,470.1c-1.2-0.3-2.2-0.8-2.9-1.3l1.4-2.8c0.7,0.5,1.5,0.8,2.5,1.1c1,0.3,2,0.4,2.9,0.4
			c2.2,0,3.3-0.6,3.3-1.7c0-0.5-0.3-0.9-0.8-1.1c-0.6-0.2-1.4-0.4-2.7-0.6s-2.3-0.4-3.1-0.7c-0.8-0.3-1.5-0.7-2.1-1.3
			c-0.6-0.6-0.9-1.5-0.9-2.6c0-1.5,0.6-2.7,1.9-3.6c1.2-0.9,2.9-1.3,5-1.3c1.1,0,2.1,0.1,3.2,0.4c1.1,0.2,2,0.6,2.6,1l-1.4,2.8
			c-1.3-0.8-2.8-1.2-4.5-1.2c-1.1,0-1.9,0.2-2.4,0.5c-0.6,0.3-0.8,0.7-0.8,1.3c0,0.6,0.3,1,0.9,1.2c0.6,0.2,1.5,0.5,2.8,0.7
			c1.2,0.2,2.3,0.4,3.1,0.7s1.5,0.7,2.1,1.3c0.6,0.6,0.9,1.5,0.9,2.6c0,1.5-0.6,2.6-1.9,3.5c-1.3,0.9-3,1.3-5.2,1.3
			C39.1,470.6,37.8,470.4,36.6,470.1z"/>
		<path class="st1" d="M77.8,470.4v-13.6L71.1,468h-1.7l-6.7-11.1v13.4h-3.6v-20.5h3.1l8.1,13.6l8-13.6h3.1v20.5h-3.6V470.4z"/>
		<path class="st1" d="M97.9,456.3c1.2,1.1,1.8,2.8,1.8,5v9.2h-3.5v-2c-0.4,0.7-1.1,1.2-1.9,1.6s-1.8,0.5-3,0.5s-2.2-0.2-3.1-0.6
			s-1.6-1-2-1.7s-0.7-1.5-0.7-2.4c0-1.4,0.5-2.5,1.6-3.4c1-0.8,2.7-1.3,4.9-1.3h4V461c0-1.1-0.3-1.9-1-2.5s-1.6-0.9-2.9-0.9
			c-0.9,0-1.7,0.1-2.6,0.4c-0.8,0.3-1.6,0.7-2.2,1.1l-1.4-2.7c0.8-0.6,1.8-1.1,3-1.4s2.4-0.5,3.7-0.5
			C94.9,454.6,96.6,455.1,97.9,456.3z M94.5,467.3c0.7-0.4,1.2-1,1.5-1.8v-1.8h-3.8c-2.1,0-3.2,0.7-3.2,2.1c0,0.7,0.3,1.2,0.8,1.6
			s1.3,0.6,2.2,0.6C93,467.9,93.8,467.7,94.5,467.3z"/>
		<path class="st1" d="M104.4,448.7h3.7v21.7h-3.7V448.7z"/>
		<path class="st1" d="M112.8,448.7h3.7v21.7h-3.7V448.7z"/>
		<path class="st1" d="M121.5,451.6c-0.4-0.4-0.7-0.9-0.7-1.6c0-0.6,0.2-1.1,0.7-1.6c0.4-0.4,1-0.6,1.7-0.6c0.7,0,1.2,0.2,1.7,0.6
			c0.4,0.4,0.7,0.9,0.7,1.5s-0.2,1.2-0.7,1.6c-0.4,0.4-1,0.7-1.7,0.7C122.5,452.2,121.9,452,121.5,451.6z M121.3,454.8h3.7v15.6
			h-3.7V454.8z"/>
		<path class="st1" d="M132.5,469.6c-1.3-0.7-2.3-1.6-3-2.9c-0.7-1.2-1.1-2.6-1.1-4.1s0.4-2.9,1.1-4.1c0.7-1.2,1.7-2.2,3-2.8
			c1.3-0.7,2.7-1,4.4-1c1.5,0,2.9,0.3,4.1,0.9s2,1.5,2.6,2.7l-2.8,1.6c-0.4-0.7-1-1.3-1.7-1.6c-0.7-0.4-1.4-0.5-2.2-0.5
			c-1.4,0-2.5,0.4-3.4,1.3c-0.9,0.9-1.3,2.1-1.3,3.6s0.4,2.7,1.3,3.6c0.9,0.9,2,1.3,3.4,1.3c0.8,0,1.5-0.2,2.2-0.5
			c0.7-0.3,1.2-0.9,1.7-1.6l2.8,1.6c-0.6,1.2-1.5,2.1-2.6,2.7c-1.1,0.6-2.5,1-4,1C135.3,470.6,133.8,470.3,132.5,469.6z"/>
		<path class="st1" d="M153,463.7l-2.7,2.6v4.1h-3.7v-21.7h3.7v13.1l7.6-7h4.4l-6.5,6.6l7.1,9.1h-4.4L153,463.7z"/>
	</g>
</g>
</svg>
