<?xml version="1.0" encoding="utf-8"?>
<!-- Generator: Adobe Illustrator 19.0.0, SVG Export Plug-In . SVG Version: 6.00 Build 0)  -->
<svg version="1.1" id="Layer_1" xmlns="http://www.w3.org/2000/svg" xmlns:xlink="http://www.w3.org/1999/xlink" x="0px" y="0px"
	 viewBox="0 0 445.8 648.7" enable-background="new 0 0 445.8 648.7" xml:space="preserve">
<g id="XMLID_270_">
	<g id="XMLID_314_">
		<path id="XMLID_739_" fill="#231F20" d="M37.8,492.7c1.3,0,2.5,0.4,3.4,1.3c0.9,0.9,1.4,2,1.4,3.3c0,1.3-0.5,2.5-1.4,3.3
			c-0.9,0.9-2.1,1.3-3.4,1.3H6.1c-1.3,0-2.5-0.5-3.4-1.4c-0.9-0.9-1.4-2-1.4-3.3c0-1.4,0.5-2.6,1.4-3.4c0.9-0.8,2.1-1.3,3.4-1.3
			H37.8z M34.3,463.8c1.4,0,2.9,0.2,4.5,0.5c1.6,0.3,2.9,0.9,4,1.8c1.1,0.8,1.7,2,1.7,3.4c0,1.3-0.4,2.5-1.3,3.3
			c-0.8,0.9-1.9,1.3-3,1.3c-0.8,0-1.8-0.2-3.2-0.7c-1.3-0.5-2.7-0.7-4.2-0.7c-1.9,0-3.5,0.4-4.7,1.3c-1.2,0.8-2.1,2-2.7,3.3
			c-0.5,1.4-0.8,2.9-0.8,4.6v69.9c0,1.4-0.5,2.7-1.5,3.7c-1,1-2.2,1.5-3.6,1.5c-1.5,0-2.7-0.5-3.7-1.5c-0.9-1-1.4-2.2-1.4-3.7v-69.7
			c0-5.6,1.7-10.1,5.2-13.4C23.3,465.4,28.1,463.8,34.3,463.8z"/>
		<path id="XMLID_742_" fill="#231F20" d="M115.8,524.2c0,6.6-1.4,12.4-4.3,17.6c-2.9,5.1-6.8,9.2-11.7,12.1
			c-4.9,2.9-10.5,4.4-16.7,4.4c-6.1,0-11.7-1.5-16.6-4.4c-4.9-2.9-8.8-7-11.7-12.1c-2.9-5.1-4.4-11-4.4-17.6s1.5-12.4,4.4-17.6
			c2.9-5.1,6.8-9.2,11.7-12.1c4.9-2.9,10.5-4.4,16.6-4.4c6.2,0,11.8,1.5,16.7,4.4c4.9,2.9,8.8,7,11.7,12.1
			C114.4,511.7,115.8,517.6,115.8,524.2z M105.7,524.2c0-4.9-1-9.2-3-12.9c-2-3.7-4.7-6.6-8.1-8.7c-3.4-2.1-7.3-3.2-11.6-3.2
			c-4.2,0-8,1.1-11.5,3.2c-3.5,2.1-6.2,5-8.1,8.7c-2,3.7-3,8-3,12.9c0,4.8,1,9.1,3,12.8c2,3.7,4.7,6.6,8.1,8.8
			c3.5,2.1,7.3,3.2,11.5,3.2c4.3,0,8.1-1.1,11.6-3.2c3.4-2.1,6.1-5.1,8.1-8.8C104.7,533.2,105.7,529,105.7,524.2z"/>
		<path id="XMLID_745_" fill="#231F20" d="M191.8,524.2c0,6.6-1.4,12.4-4.3,17.6c-2.9,5.1-6.8,9.2-11.7,12.1
			c-4.9,2.9-10.5,4.4-16.7,4.4c-6.1,0-11.7-1.5-16.6-4.4c-4.9-2.9-8.8-7-11.7-12.1c-2.9-5.1-4.4-11-4.4-17.6s1.5-12.4,4.4-17.6
			c2.9-5.1,6.8-9.2,11.7-12.1c4.9-2.9,10.5-4.4,16.6-4.4c6.2,0,11.8,1.5,16.7,4.4c4.9,2.9,8.8,7,11.7,12.1
			C190.4,511.7,191.8,517.6,191.8,524.2z M181.7,524.2c0-4.9-1-9.2-3-12.9c-2-3.7-4.7-6.6-8.1-8.7c-3.4-2.1-7.3-3.2-11.6-3.2
			c-4.2,0-8,1.1-11.5,3.2c-3.5,2.1-6.2,5-8.1,8.7c-2,3.7-3,8-3,12.9c0,4.8,1,9.1,3,12.8c2,3.7,4.7,6.6,8.1,8.8
			c3.5,2.1,7.3,3.2,11.5,3.2c4.3,0,8.1-1.1,11.6-3.2c3.4-2.1,6.1-5.1,8.1-8.8C180.7,533.2,181.7,529,181.7,524.2z"/>
		<path id="XMLID_748_" fill="#231F20" d="M259.7,463.5c1.5,0,2.7,0.5,3.7,1.5c0.9,1,1.4,2.2,1.4,3.6v83.3c0,1.4-0.5,2.7-1.5,3.7
			c-1,1-2.2,1.5-3.6,1.5c-1.4,0-2.6-0.5-3.6-1.5c-1-1-1.5-2.2-1.5-3.7v-12l2.4-0.9c0,2-0.6,4.1-1.8,6.4c-1.2,2.2-2.9,4.3-5.2,6.3
			c-2.2,1.9-4.8,3.5-7.8,4.8c-2.9,1.3-6.1,1.9-9.6,1.9c-5.7,0-10.9-1.5-15.4-4.4c-4.5-2.9-8.1-7-10.8-12.1c-2.7-5.1-4-11-4-17.6
			c0-6.7,1.3-12.5,4-17.7c2.7-5.1,6.2-9.2,10.7-12.1c4.5-2.9,9.6-4.4,15.2-4.4c3.5,0,6.8,0.6,9.9,1.8c3.1,1.2,5.8,2.8,8.1,4.8
			c2.4,2,4.2,4.3,5.5,6.7c1.3,2.4,2,4.9,2,7.3l-3.3-0.8v-41.3c0-1.4,0.5-2.6,1.5-3.6C257,464,258.2,463.5,259.7,463.5z M233.7,548.9
			c4.3,0,8-1.1,11.2-3.2c3.2-2.1,5.7-5.1,7.6-8.8c1.9-3.7,2.8-8,2.8-12.7c0-4.8-0.9-9.1-2.8-12.8c-1.9-3.7-4.4-6.6-7.6-8.8
			c-3.2-2.1-7-3.2-11.2-3.2c-4.1,0-7.8,1.1-11.1,3.2c-3.2,2.1-5.8,5.1-7.6,8.8c-1.9,3.7-2.8,8-2.8,12.8c0,4.6,0.9,8.8,2.8,12.6
			c1.9,3.7,4.4,6.7,7.6,8.9C225.8,547.8,229.5,548.9,233.7,548.9z"/>
		<path id="XMLID_751_" fill="#231F20" d="M332.3,490.7c1.4,0,2.6,0.5,3.6,1.5c1,1,1.5,2.2,1.5,3.6v55.1c0,7.1-1.4,12.9-4.2,17.6
			s-6.5,8.1-11.2,10.4c-4.7,2.3-10,3.4-15.9,3.4c-3.3,0-6.4-0.3-9.5-1c-3-0.7-5.5-1.6-7.5-2.7c-1.6-0.8-2.7-1.7-3.3-2.8
			c-0.6-1.1-0.7-2.3-0.3-3.6c0.6-1.5,1.5-2.6,2.6-3.2c1.1-0.6,2.3-0.6,3.6,0c1.3,0.6,3.3,1.4,5.9,2.5c2.6,1.1,5.5,1.6,8.7,1.6
			c4.4,0,8.1-0.8,11.2-2.5c3.1-1.7,5.5-4.1,7.2-7.4c1.7-3.2,2.5-7.3,2.5-12.1v-9l1.5,3.2c-1.3,2.6-3.2,4.9-5.4,6.8
			c-2.3,1.9-4.9,3.5-7.8,4.5c-2.9,1.1-6.2,1.6-9.7,1.6c-4.8,0-8.9-1-12.2-3.1c-3.3-2.1-5.9-4.9-7.6-8.6c-1.7-3.7-2.6-7.9-2.6-12.7
			v-38.2c0-1.4,0.5-2.6,1.5-3.6c1-1,2.2-1.5,3.6-1.5c1.5,0,2.7,0.5,3.7,1.5c0.9,1,1.4,2.2,1.4,3.6v35.9c0,5.7,1.3,10,3.8,12.9
			c2.5,2.9,6.4,4.4,11.7,4.4c3.4,0,6.4-0.8,9.2-2.3c2.7-1.5,4.9-3.6,6.6-6.3s2.5-5.6,2.5-8.8v-35.9c0-1.4,0.5-2.6,1.4-3.6
			C329.6,491.2,330.8,490.7,332.3,490.7z"/>
		<path id="XMLID_753_" fill="#231F20" d="M421.5,474.4c1.4,0.8,2.3,1.9,2.5,3.4c0.2,1.5-0.2,2.9-1.2,4.2c-0.8,1.1-1.7,1.7-2.9,1.8
			c-1.2,0.1-2.4-0.2-3.5-0.8c-2.8-1.7-5.8-3-9-4c-3.2-1-6.6-1.5-10.1-1.5c-5,0-9.5,0.9-13.6,2.6c-4.1,1.7-7.7,4.1-10.7,7.3
			c-3,3.1-5.4,6.8-7.1,11.1c-1.7,4.3-2.5,9.1-2.5,14.3c0,5.6,0.9,10.5,2.7,14.9c1.8,4.4,4.2,8.1,7.3,11.2c3.1,3.1,6.7,5.4,10.7,7
			c4.1,1.6,8.5,2.4,13.3,2.4c3.5,0,6.8-0.5,10-1.4c3.2-0.9,6.2-2.3,9.1-4c1.2-0.6,2.4-0.8,3.5-0.6c1.2,0.2,2.2,0.8,3,1.8
			c1,1.3,1.4,2.8,1.1,4.2c-0.3,1.5-1.1,2.5-2.4,3.2c-2.1,1.3-4.5,2.4-7.2,3.5c-2.7,1.1-5.5,1.9-8.4,2.5c-2.9,0.6-5.8,0.9-8.8,0.9
			c-6.1,0-11.8-1.1-17.2-3.2c-5.4-2.1-10.2-5.1-14.3-9.1c-4.1-4-7.4-8.7-9.8-14.3c-2.4-5.6-3.6-11.9-3.6-18.9
			c0-6.6,1.1-12.6,3.4-18.1c2.3-5.5,5.5-10.2,9.5-14.3c4.1-4,8.8-7.2,14.3-9.5c5.4-2.3,11.3-3.4,17.6-3.4c4.4,0,8.7,0.6,12.8,1.8
			C414.3,470.5,418.1,472.2,421.5,474.4z"/>
		<path id="XMLID_755_" fill="#231F20" d="M440.6,556.9c-1.8,0-3.1-0.5-4.1-1.5c-1-1-1.5-2.4-1.5-4.2v-2.5c0-1.9,0.5-3.3,1.5-4.3
			c1-1,2.3-1.5,4.1-1.5h1c1.9,0,3.2,0.5,4.2,1.5c0.9,1,1.4,2.4,1.4,4.3v2.5c0,1.8-0.5,3.2-1.4,4.2c-0.9,1-2.3,1.5-4.2,1.5H440.6z"/>
	</g>
	<g id="XMLID_272_">
		<g id="XMLID_301_">
			<g id="XMLID_308_">
				<g id="XMLID_311_">
					<path id="XMLID_64_" fill="#FFFEF9" d="M414.1,219.9c-0.1,20.9-3.2,41.7-9.3,60.5c-12.8,39.4-3.9,75.1-37.5,103.3
						C315.7,427,246.4,404,188.1,424.9c-35.2,12.6-92.9-4.8-112-41.1c-14.2-26.9-14.5-59-29.9-86.2c-13.9-24.6-31.2-45.3-34-75.4
						c-3.3-36.6,11.1-72.4,35.7-96.7c21.4-21.1,40.5-44.8,57.6-70c20.2-29.9,43.3-43.7,76.7-50.6c24.2-5,40.7,6.5,63,15.5
						c26.8,10.9,56.4,10.9,82.7,22.4c22.2,9.7,30.7,28.6,41.9,49.9c9.9,18.8,24.9,33.5,32.5,53.8
						C410.8,169.4,414.3,195.2,414.1,219.9z"/>
				</g>
				<g id="XMLID_307_">
					<path id="XMLID_65_" fill="#3C2517" d="M414.5,219.9c0,0,0,1.3,0,3.8c-0.1,2.5-0.2,6.2-0.5,11c-0.3,4.8-0.9,10.7-2,17.6
						c-1.1,6.9-2.6,14.8-5,23.5c-1.2,4.3-2.7,8.8-3.9,13.6c-1.2,4.8-2.1,9.9-3,15.2c-0.9,5.3-1.6,10.9-2.4,16.7
						c-0.8,5.8-1.6,11.8-2.9,18c-1.3,6.2-3,12.5-5.7,18.8c-2.6,6.2-6.3,12.4-10.9,17.9c-4.5,5.6-10.2,10.5-16.2,14.9
						c-6.1,4.5-12.8,8.4-20,11.6c-7.2,3.2-14.8,5.8-22.7,7.7c-7.9,1.9-16.1,3.2-24.4,4.2c-16.6,2-33.9,2.3-51.3,3.5
						c-8.7,0.6-17.6,1.4-26.4,2.7c-8.8,1.3-17.7,3.2-26.3,6l-3.3,1.1c-1.1,0.3-2.2,0.7-3.4,1c-2.4,0.6-4.7,1.1-7.1,1.5
						c-4.8,0.7-9.6,1.1-14.4,1c-9.7-0.1-19.3-1.6-28.7-4.2c-9.4-2.6-18.6-6.4-27.1-11.3c-8.5-5-16.5-11.2-23.1-18.8
						c-3.3-3.8-6.2-8-8.5-12.5l-1.7-3.4l-0.8-1.7l-0.7-1.7l-1.5-3.5l-1.3-3.5c-3.5-9.5-5.9-19.3-8.4-29c-1.3-4.9-2.5-9.8-4-14.6
						c-0.7-2.4-1.5-4.8-2.2-7.2c-0.4-1.2-0.8-2.4-1.2-3.6c-0.4-1.2-0.8-2.4-1.3-3.5l-1.4-3.5c-0.5-1.2-1-2.3-1.6-3.4
						c-1-2.3-2.3-4.5-3.4-6.7c-2.5-4.4-5.1-8.8-7.8-13.1c-5.4-8.6-11-17.3-15.8-26.5c-4.8-9.2-8.6-19-10.5-29.3l-0.4-1.9
						c-0.1-0.6-0.2-1.3-0.3-1.9l-0.5-3.9c-0.2-2.6-0.4-5.1-0.5-7.7c-0.1-5.3,0-10.5,0.5-15.7c1-10.4,3.4-20.6,6.9-30.4
						c3.6-9.8,8.5-19.1,14.3-27.6c2.9-4.3,6.2-8.4,9.5-12.3c1.7-1.9,3.6-3.8,5.3-5.6c1.8-1.8,3.6-3.6,5.3-5.4
						C65.5,103,78.2,87.7,89.9,71.8c2.9-4,5.8-7.9,8.5-12c1.4-2,2.8-4,4.1-6c1.4-2,2.8-4,4.3-6.1c3-4,6.1-8,9.5-11.6l2.5-2.7
						l2.7-2.6c1.7-1.8,3.7-3.3,5.5-5c7.6-6.4,16.1-11.6,25-15.5c8.9-3.9,18.2-6.6,27.4-8.6l1.7-0.4c0,0,0.4-0.1,0.6-0.1l0.4-0.1
						L183,1c1.2-0.2,2.2-0.4,3.5-0.5c1.3-0.1,2.5-0.2,3.8-0.3c1.2-0.1,2.4-0.1,3.7-0.1c4.9,0,9.7,0.6,14.3,1.8
						c4.6,1.1,9,2.7,13.3,4.4c4.2,1.7,8.3,3.6,12.3,5.4c4,1.8,8,3.6,11.9,5.2l0.7,0.3l0.8,0.3l1.5,0.6c1,0.4,2,0.8,3,1.1
						c2,0.6,3.9,1.4,5.9,1.9c8,2.4,16.2,4.2,24.2,5.9c8.1,1.7,16.1,3.3,24,5.3c7.9,2,15.5,4.5,22.7,7.7l0.3,0.1
						c0.3,0.1,0.3,0.1,0.4,0.2l0.6,0.3l1.3,0.6c0.9,0.4,1.7,0.8,2.6,1.4c0.9,0.5,1.8,1,2.6,1.5c0.9,0.5,1.6,1.1,2.5,1.7
						c1.7,1.1,3.1,2.4,4.6,3.6c0.7,0.6,1.4,1.3,2.1,2c0.7,0.7,1.4,1.3,2,2c0.7,0.7,1.3,1.4,2,2.1c0.6,0.7,1.2,1.5,1.8,2.2
						c0.6,0.7,1.2,1.5,1.7,2.2c0.6,0.7,1.1,1.5,1.7,2.2c2.1,3,4,6.1,5.8,9.2c3.5,6.2,6.5,12.3,9.5,18.3c2.9,5.9,6.1,11.4,9.5,16.6
						c6.8,10.4,13.8,19.9,18.7,29.7c1.2,2.4,2.3,4.9,3.3,7.3c0.5,1.2,1,2.4,1.4,3.6c0.4,1.2,0.8,2.4,1.2,3.6
						c1.6,4.7,2.9,9.3,3.9,13.7c2.1,8.7,3.4,16.7,4.3,23.6c0.9,6.9,1.3,12.9,1.6,17.7c0.2,4.8,0.3,8.5,0.3,11
						C414.5,218.6,414.5,219.9,414.5,219.9z M413.8,219.9c0,0,0-1.3,0-3.8c0-2.5-0.1-6.2-0.4-10.9c-0.6-9.6-1.8-23.7-6.3-41
						c-1.2-4.3-2.5-8.8-4.1-13.5c-0.4-1.2-0.9-2.3-1.3-3.5c-0.4-1.2-1-2.3-1.4-3.5c-1-2.3-2.2-4.7-3.5-7.1
						c-2.6-4.7-5.6-9.4-8.9-14.2c-3.3-4.8-7-9.6-10.6-14.7c-1.8-2.6-3.6-5.2-5.3-8c-0.8-1.4-1.8-2.8-2.5-4.2
						c-0.4-0.7-0.8-1.4-1.2-2.2c-0.4-0.7-0.8-1.5-1.2-2.2c-3.2-5.8-6.3-11.9-10-17.8c-1.8-3-3.8-5.8-5.8-8.6
						c-0.5-0.7-1.1-1.4-1.6-2.1c-0.5-0.7-1.1-1.4-1.7-2c-0.6-0.7-1.2-1.3-1.8-2c-0.6-0.6-1.2-1.2-1.9-1.9c-0.6-0.6-1.3-1.2-1.9-1.8
						c-0.7-0.6-1.3-1.2-2-1.7c-1.4-1.1-2.8-2.2-4.3-3.1c-0.8-0.5-1.5-1-2.3-1.4c-0.8-0.4-1.5-0.9-2.3-1.3c-0.7-0.4-1.7-0.8-2.5-1.2
						l-1.3-0.6l-0.7-0.3c-0.1,0-0.3-0.1-0.2-0.1l-0.3-0.1c-13.9-5.8-29.5-8.6-45.8-11.7c-8.2-1.6-16.5-3.3-24.9-5.8
						c-2.1-0.6-4.2-1.4-6.4-2c-1-0.4-2-0.8-3-1.1l-1.5-0.6l-0.8-0.3l-0.8-0.3c-4.1-1.7-8.1-3.5-12.2-5.2c-8-3.6-16-7.2-24.4-9.2
						c-4.2-1-8.4-1.5-12.7-1.6c-1.1,0-2.2,0-3.2,0.1l-3.1,0.3c-1.1,0.1-2.3,0.4-3.4,0.5l-0.9,0.1l-0.4,0.1c-0.2,0,0,0-0.3,0.1
						L181,8.6c-8.9,1.9-17.6,4.5-26,8.2c-8.3,3.7-16.3,8.4-23.5,14.3c-1.7,1.5-3.6,3-5.2,4.6l-2.5,2.4l-2.4,2.6
						c-1.7,1.7-3.1,3.5-4.7,5.3c-1.5,1.8-2.9,3.7-4.4,5.5c-1.4,2-2.8,3.9-4.2,5.9c-1.4,2-2.8,4.1-4.2,6.1c-2.8,4.1-5.8,8.1-8.7,12
						c-11.9,15.9-24.9,31.4-39.2,45.9c-1.8,1.8-3.6,3.6-5.4,5.4c-1.8,1.8-3.5,3.5-5.2,5.3c-3.3,3.7-6.5,7.5-9.3,11.6
						c-5.7,8.1-10.5,17-14.1,26.3c-3.6,9.3-6.1,19.1-7.3,29.1c-0.6,5-0.8,10-0.8,15c0,2.5,0.2,5.1,0.3,7.7l0.4,3.7
						c0.1,0.6,0.1,1.2,0.2,1.9l0.3,1.9c1.6,9.9,5.1,19.5,9.6,28.6c4.5,9.1,9.9,17.8,15.2,26.5c2.7,4.4,5.3,8.8,7.7,13.3
						c1.2,2.3,2.4,4.5,3.4,6.9c0.5,1.2,1.1,2.3,1.6,3.5l1.4,3.6c3.7,9.6,6.2,19.4,8.7,29.2c1.2,4.9,2.5,9.8,3.8,14.6
						c0.7,2.4,1.4,4.8,2.1,7.2c0.8,2.4,1.5,4.7,2.4,7l1.3,3.5l1.5,3.4l0.7,1.7l0.8,1.7l1.6,3.3c2.3,4.3,5.2,8.3,8.4,11.9
						c6.5,7.3,14.3,13.2,22.7,17.8c8.4,4.6,17.5,8,26.6,10.4c18.3,4.5,37.6,5,54.5-1.6c8.9-3.1,18-5.3,27-6.8c9-1.5,18-2.4,26.8-3.1
						c8.8-0.7,17.5-1.1,26-1.6c8.5-0.5,16.9-1.1,25-2c16.3-1.8,31.8-5,45.7-10.9c6.9-2.9,13.4-6.6,19.3-10.6
						c6-4.2,11.4-8.6,15.9-13.8c4.5-5.1,8.1-10.8,10.8-16.6c2.7-5.9,4.6-12,6.1-18c2.9-12,4.3-23.7,6.3-34.3
						c1-5.3,2.1-10.4,3.4-15.2c1.2-4.8,2.8-9.3,4.1-13.6c5.1-17.2,6.7-31.3,7.4-40.8c0.4-4.8,0.5-8.5,0.6-10.9
						C413.8,221.2,413.8,219.9,413.8,219.9z"/>
				</g>
			</g>
			<g id="XMLID_305_">
				<path id="XMLID_61_" fill="#F2F2F2" d="M251.4,72.8c0,0,2.3,0.3,6.2,1.3c3.9,1,9.3,2.7,15.6,5.4c3.2,1.3,6.5,2.9,10,4.8
					c3.5,1.9,7.1,3.9,10.7,6.3c3.6,2.3,7.2,4.9,10.8,7.7c3.5,2.9,7,5.9,10.3,9.1c3.3,3.2,6.4,6.7,9.4,10.2c1.5,1.7,2.8,3.6,4.2,5.4
					c1.3,1.8,2.5,3.7,3.8,5.5c1.1,1.9,2.3,3.7,3.3,5.5c1,1.8,2,3.7,2.9,5.4c0.9,1.8,1.6,3.6,2.4,5.3c0.4,0.9,0.7,1.7,1,2.6
					c0.3,0.8,0.6,1.7,0.9,2.5c0.3,0.8,0.6,1.6,0.8,2.4c0.2,0.8,0.5,1.6,0.7,2.3c0.4,1.5,0.8,2.9,1.2,4.3c0.6,2.8,1.1,5.1,1.3,7.1
					c0.5,4,0.6,6.3,0.6,6.3s-1.2-2-3.1-5.4c-1-1.7-2.2-3.7-3.6-6c-0.7-1.1-1.5-2.3-2.3-3.6c-0.4-0.6-0.8-1.3-1.2-1.9
					c-0.4-0.6-0.9-1.3-1.4-2c-1.8-2.7-3.8-5.6-6-8.6c-1.1-1.5-2.3-3-3.4-4.5c-1.3-1.5-2.4-3.1-3.7-4.6c-1.3-1.5-2.6-3.1-4-4.6
					c-0.7-0.8-1.4-1.5-2.1-2.3c-0.7-0.8-1.4-1.6-2.1-2.3c-2.9-3.1-5.8-6.2-8.9-9.1c-3-3-6.2-5.9-9.3-8.7c-3.2-2.8-6.3-5.5-9.4-8.1
					c-3.1-2.6-6.2-5.1-9.1-7.4c-3-2.3-5.8-4.5-8.4-6.5c-5.3-4-9.8-7.3-12.9-9.6C253.2,74.1,251.4,72.8,251.4,72.8z"/>
			</g>
			<g id="XMLID_302_">
				<path id="XMLID_76_" fill="#F2F2F2" d="M61.4,235.1c0,0-0.5-0.9-1.2-2.7c-0.7-1.7-1.5-4.2-2.2-7.3c-0.7-3.1-1.3-6.7-1.6-10.6
					c-0.1-1-0.1-2-0.1-3c0-1,0-2,0-3.1c0-2.1,0.2-4.2,0.4-6.3c0.3-2.1,0.6-4.2,1-6.3c0.2-1,0.5-2,0.7-3c0.3-1,0.6-2,0.9-2.9
					c0.6-1.9,1.4-3.7,2.1-5.3c0.8-1.7,1.6-3.2,2.4-4.5c0.8-1.4,1.7-2.5,2.5-3.6c0.8-1,1.6-1.8,2.2-2.5c0.6-0.7,1.2-1.2,1.5-1.5
					c0.4-0.3,0.6-0.5,0.6-0.5s-0.1,0.2-0.3,0.7c-0.2,0.5-0.4,1.1-0.8,1.9c-0.3,0.8-0.7,1.9-1.2,3c-0.4,1.2-0.9,2.5-1.3,3.9
					c-0.2,0.7-0.5,1.4-0.7,2.2c-0.2,0.8-0.5,1.6-0.7,2.4c-0.4,1.6-0.9,3.4-1.2,5.2c-0.4,1.8-0.7,3.7-1,5.6c-0.2,1-0.3,1.9-0.4,2.9
					c-0.2,1-0.3,2-0.4,2.9c-0.2,2-0.4,3.9-0.6,5.9c-0.1,2-0.3,3.9-0.3,5.8c-0.1,1.9-0.1,3.7-0.2,5.4c0,1.7-0.1,3.4-0.1,4.9
					C61.4,230.9,61.4,235.1,61.4,235.1z"/>
			</g>
		</g>
		<g id="XMLID_277_">
			<g id="XMLID_297_">
				<path id="XMLID_77_" fill="#FBB042" d="M298.9,292.4c-5.3,54.2-49.8,94.1-99.5,89.1c-49.7-5-85.7-53.1-80.4-107.3
					c5.3-54.2,49.8-94.1,99.5-89.1S304.1,238.2,298.9,292.4z"/>
			</g>
			<g id="XMLID_289_">
				<path id="XMLID_78_" fill="#F89521" d="M270.1,260.1c0,0,0.8,1.5,1.8,4.1c1,2.7,2.1,6.5,2.9,11.3c0.2,1.2,0.3,2.4,0.5,3.7
					c0.1,1.3,0.3,2.6,0.3,4c0.1,1.4,0.1,2.8,0.1,4.3c0,1.5,0,2.9-0.1,4.5c-0.1,1.5-0.2,3.1-0.4,4.6c-0.2,1.6-0.4,3.1-0.7,4.7
					c-0.3,1.6-0.6,3.2-1,4.8c-0.2,0.8-0.4,1.6-0.6,2.4l-0.7,2.4c-0.5,1.6-1.1,3.1-1.7,4.7c-0.6,1.5-1.3,3-2,4.5
					c-1.5,2.9-3.2,5.8-5.1,8.3c-1,1.3-1.9,2.5-3,3.6c-0.5,0.6-1,1.1-1.5,1.7c-0.5,0.5-1.1,1-1.6,1.5c-0.5,0.5-1.1,1-1.6,1.4
					c-0.5,0.5-1.1,0.9-1.6,1.3c-1.1,0.8-2.1,1.6-3.2,2.3c-1.1,0.6-2.1,1.3-3.1,1.8c-1.1,0.5-2,0.9-3,1.3c-0.5,0.2-0.9,0.4-1.4,0.5
					c-0.4,0.2-0.9,0.3-1.3,0.4c-0.8,0.2-1.6,0.5-2.3,0.7c-2.9,0.5-4.5,0.7-4.5,0.7s1.1-1.3,3-3.2c0.9-1.1,2-2.2,3.2-3.6
					c0.6-0.7,1.2-1.5,1.8-2.2c0.6-0.8,1.2-1.6,1.9-2.5c0.7-0.8,1.3-1.8,1.9-2.7c0.3-0.5,0.7-0.9,1-1.4c0.3-0.5,0.6-1,0.9-1.5
					c0.3-0.5,0.6-1,0.9-1.6c0.3-0.5,0.6-1.1,0.9-1.6c0.3-0.6,0.6-1.1,0.9-1.7c0.3-0.6,0.6-1.2,0.8-1.7c0.6-1.1,1.1-2.4,1.6-3.6
					c0.3-0.6,0.5-1.2,0.8-1.9c0.3-0.6,0.5-1.3,0.8-1.9c0.5-1.3,1-2.6,1.4-3.9c0.4-1.3,0.9-2.6,1.3-4l0.6-2l0.6-2
					c0.4-1.3,0.8-2.7,1.2-4.1c0.4-1.4,0.7-2.7,1.1-4.1c0.3-1.4,0.7-2.7,1-4c0.6-2.7,1.3-5.3,1.8-7.8c0.6-2.5,1.1-4.9,1.6-7.1
					c0.5-2.2,1-4.3,1.4-6.1c0.4-1.8,0.8-3.5,1.1-4.8C269.6,261.6,270.1,260.1,270.1,260.1z"/>
			</g>
			<g id="XMLID_278_">
				<path id="XMLID_117_" fill="#F89521" d="M173.4,255.5c-4.5,8.8-11.6,14-15.9,11.7c-4.2-2.3-4-11.2,0.6-20s11.6-14,15.9-11.7
					C178.2,237.8,178,246.7,173.4,255.5z"/>
			</g>
		</g>
		<g id="XMLID_274_">
			<path id="XMLID_60_" fill="#231F20" d="M285.4,132.1"/>
		</g>
	</g>
</g>
<g id="XMLID_112_">
	<path id="XMLID_152_" d="M64.8,609.4h10.3v2.9H64.8V609.4z"/>
	<path id="XMLID_154_" d="M80.8,601.4c-0.4-0.4-0.6-0.9-0.6-1.6c0-0.6,0.2-1,0.6-1.4c0.4-0.4,0.9-0.6,1.6-0.6c0.6,0,1.1,0.2,1.5,0.6
		c0.4,0.4,0.6,0.9,0.6,1.4c0,0.6-0.2,1.1-0.6,1.6c-0.4,0.4-0.9,0.6-1.5,0.6C81.8,602.1,81.2,601.8,80.8,601.4z M80.7,604.6h3.4v13.8
		h-3.4V604.6z"/>
	<path id="XMLID_157_" d="M88.6,604.6h3.2l0,2.5c0.4-0.8,1-1.5,1.8-2.1c0.8-0.5,1.8-0.8,2.9-0.8c1.4,0,2.5,0.3,3.3,0.9
		c0.8,0.6,1.3,1.4,1.5,2.5c0.3,1.1,0.4,2.4,0.4,4.1v6.6h-3.2v-6.5c0-1.7-0.2-3-0.5-3.8c-0.3-0.8-1-1.2-2.1-1.2
		c-0.6,0-1.2,0.2-1.8,0.6c-0.6,0.4-1.1,0.9-1.5,1.6c-0.4,0.7-0.6,1.5-0.6,2.5v6.8h-3.2V604.6z"/>
	<path id="XMLID_159_" d="M124.1,616.3c-0.5,0.8-1.2,1.3-2,1.8c-0.9,0.4-1.9,0.6-3.1,0.6c-1.2,0-2.4-0.3-3.4-0.9
		c-1-0.6-1.8-1.5-2.4-2.6c-0.6-1.1-0.9-2.4-0.9-3.8c0-1.6,0.3-2.9,0.9-3.9c0.6-1.1,1.4-1.9,2.4-2.4s2.1-0.8,3.4-0.8
		c2.3,0,4,1,5.1,2.9l0-2.5h3.1v21.1h-3.2L124.1,616.3z M122.7,614.8c0.8-0.8,1.2-1.8,1.2-3.1v-0.2c0-0.9-0.2-1.6-0.5-2.3
		s-0.9-1.2-1.5-1.6s-1.3-0.6-2-0.6c-1.3,0-2.3,0.4-3,1.2c-0.7,0.8-1,1.9-1,3.2c0,1.3,0.3,2.4,1,3.3s1.7,1.2,3,1.2
		C121,616,121.9,615.6,122.7,614.8z"/>
	<path id="XMLID_162_" d="M132.4,617c-0.7-1.1-1.1-2.7-1.1-4.7v-7.7h3.2v6.9c0,1.1,0.1,2,0.2,2.7c0.1,0.6,0.4,1.1,0.8,1.4
		c0.4,0.3,1,0.5,1.8,0.5c0.6,0,1.1-0.2,1.6-0.5c0.5-0.3,0.9-0.8,1.3-1.3c0.3-0.5,0.5-1.2,0.5-1.8v-7.8h3.2v13.8h-2.6l-0.4-2
		c-0.5,0.8-1.1,1.4-1.9,1.7c-0.8,0.4-1.7,0.6-2.7,0.6C134.5,618.7,133.2,618.1,132.4,617z"/>
	<path id="XMLID_164_" d="M150.7,617.7c-1.1-0.6-1.9-1.5-2.4-2.6c-0.5-1.1-0.8-2.3-0.8-3.6c0-1.5,0.3-2.7,0.9-3.8
		c0.6-1.1,1.5-1.9,2.5-2.5s2.3-0.9,3.7-0.9c2.1,0,3.7,0.6,4.7,1.8s1.5,2.8,1.5,4.9c0,0.5,0,1.1-0.1,1.7h-9.9
		c0.2,1.2,0.7,2.1,1.3,2.6c0.6,0.5,1.6,0.8,2.7,0.8c1,0,1.8-0.1,2.4-0.2c0.6-0.2,1.2-0.4,1.7-0.7l1,2.3c-0.5,0.3-1.2,0.6-2,0.8
		c-0.9,0.2-1.9,0.4-3.1,0.4C153.1,618.7,151.8,618.4,150.7,617.7z M157.7,610.4c0-1.2-0.3-2.1-0.8-2.6c-0.6-0.5-1.4-0.8-2.4-0.8
		c-2.1,0-3.3,1.1-3.6,3.4H157.7z"/>
	<path id="XMLID_167_" d="M166,618.3c-1-0.3-1.8-0.5-2.2-0.9l1.1-2.5c1.2,0.8,2.6,1.3,4.1,1.3c1.5,0,2.3-0.5,2.3-1.3
		c0-0.4-0.2-0.7-0.5-0.9c-0.3-0.2-0.9-0.5-1.7-0.8l-1.1-0.4c-1.2-0.5-2.2-1.1-2.9-1.7c-0.7-0.7-1-1.6-1-2.7c0-1.3,0.5-2.2,1.5-3
		c1-0.7,2.3-1.1,4-1.1c0.8,0,1.6,0.1,2.4,0.3c0.8,0.2,1.4,0.4,1.8,0.7l-1.2,2.6c-0.3-0.3-0.7-0.5-1.2-0.7c-0.6-0.2-1.2-0.3-1.9-0.3
		c-1.4,0-2.1,0.4-2.1,1.3c0,0.5,0.2,0.8,0.6,1.1s1,0.5,1.9,0.8c0.1,0,0.4,0.1,0.9,0.3c1.3,0.5,2.2,1.1,2.9,1.7
		c0.6,0.6,0.9,1.5,0.9,2.5c0,1.4-0.5,2.4-1.5,3.1c-1,0.7-2.3,1-3.9,1C168,618.7,167,618.6,166,618.3z"/>
	<path id="XMLID_169_" d="M179,607.3h-2.4v-2.6h2.4V599l3.3-0.7v6.3h3.2v2.6h-3.2v11.1H179V607.3z"/>
	<path id="XMLID_171_" d="M198.1,617.7c-1.1-0.6-2-1.5-2.5-2.6c-0.6-1.1-0.9-2.3-0.9-3.7c0-1.3,0.3-2.5,0.9-3.6
		c0.6-1.1,1.4-2,2.5-2.6c1.1-0.6,2.4-1,3.8-1c1.4,0,2.7,0.3,3.8,1c1.1,0.6,1.9,1.5,2.5,2.6c0.6,1.1,0.9,2.3,0.9,3.6
		c0,1.3-0.3,2.6-0.9,3.7c-0.6,1.1-1.4,2-2.5,2.6c-1.1,0.6-2.3,1-3.8,1S199.2,618.4,198.1,617.7z M204.7,614.8c0.7-0.9,1-1.9,1-3.2
		c0-1.3-0.4-2.4-1.1-3.3c-0.7-0.9-1.7-1.3-2.9-1.3c-1.1,0-2.1,0.4-2.7,1.3s-1,2-1,3.3c0,1.3,0.4,2.4,1.1,3.2
		c0.7,0.9,1.7,1.3,2.9,1.3C203.1,616.1,204,615.6,204.7,614.8z"/>
	<path id="XMLID_174_" d="M213.8,607.2h-2.2v-2.6h2.2v-3c0-1.8,0.4-3.2,1.3-4.2s2.1-1.5,3.8-1.5c0.7,0,1.5,0.2,2.3,0.6l-0.6,3.1
		c-0.1-0.2-0.4-0.3-0.6-0.5c-0.3-0.1-0.6-0.2-0.9-0.2c-1.3,0-2,0.9-2,2.6v3.1h3.2v2.6H217v11.2h-3.2V607.2z"/>
	<path id="XMLID_176_" d="M234.4,625.2c-1-0.3-1.7-0.5-2.1-0.8l0.7-3c1.3,0.9,2.8,1.3,4.3,1.3c1.2,0,2.2-0.3,3-0.9s1.2-1.7,1.3-3.4
		V616c-0.4,0.8-1.1,1.4-2,1.9c-0.9,0.5-2,0.8-3.1,0.8c-1.2,0-2.3-0.3-3.3-0.9s-1.8-1.4-2.4-2.5c-0.6-1.1-0.9-2.4-0.9-3.8
		c0-1.4,0.3-2.6,0.8-3.7c0.5-1.1,1.3-1.9,2.4-2.5c1-0.6,2.2-0.9,3.6-0.9c0.8,0,1.5,0.1,2.3,0.4c0.7,0.3,1.3,0.6,1.8,1
		c0.5,0.4,0.8,0.8,1,1.2l0.1-2.3h3.1v13.7c0,2.3-0.6,4.1-1.8,5.4c-1.2,1.3-3.1,1.9-5.6,1.9C236.4,625.6,235.4,625.5,234.4,625.2z
		 M240.2,614.8c0.8-0.8,1.2-1.8,1.2-3.1v-0.2c0-0.9-0.2-1.6-0.5-2.3c-0.4-0.7-0.8-1.2-1.5-1.6s-1.3-0.6-2-0.6c-1.3,0-2.3,0.4-3,1.2
		c-0.7,0.8-1,1.9-1,3.2c0,1.3,0.3,2.4,1,3.3c0.7,0.8,1.7,1.2,3,1.2C238.5,616,239.4,615.6,240.2,614.8z"/>
	<path id="XMLID_179_" d="M251.6,617.7c-1.1-0.6-1.9-1.5-2.5-2.6c-0.6-1.1-0.9-2.3-0.9-3.7c0-1.3,0.3-2.5,0.9-3.6
		c0.6-1.1,1.4-2,2.5-2.6c1.1-0.6,2.4-1,3.8-1c1.4,0,2.7,0.3,3.8,1c1.1,0.6,1.9,1.5,2.5,2.6c0.6,1.1,0.9,2.3,0.9,3.6
		c0,1.3-0.3,2.6-0.9,3.7c-0.6,1.1-1.4,2-2.5,2.6c-1.1,0.6-2.3,1-3.8,1C253.9,618.7,252.7,618.4,251.6,617.7z M258.2,614.8
		c0.7-0.9,1-1.9,1-3.2c0-1.3-0.4-2.4-1.1-3.3c-0.7-0.9-1.7-1.3-2.8-1.3c-1.1,0-2.1,0.4-2.7,1.3c-0.7,0.9-1,2-1,3.3
		c0,1.3,0.4,2.4,1.1,3.2c0.7,0.9,1.7,1.3,2.8,1.3C256.6,616.1,257.5,615.6,258.2,614.8z"/>
	<path id="XMLID_182_" d="M268.6,617.7c-1.1-0.6-1.9-1.5-2.5-2.6c-0.6-1.1-0.9-2.3-0.9-3.7c0-1.3,0.3-2.5,0.9-3.6
		c0.6-1.1,1.4-2,2.5-2.6c1.1-0.6,2.4-1,3.8-1c1.4,0,2.7,0.3,3.8,1c1.1,0.6,1.9,1.5,2.5,2.6c0.6,1.1,0.9,2.3,0.9,3.6
		c0,1.3-0.3,2.6-0.9,3.7c-0.6,1.1-1.4,2-2.5,2.6c-1.1,0.6-2.3,1-3.8,1S269.7,618.4,268.6,617.7z M275.2,614.8c0.7-0.9,1-1.9,1-3.2
		c0-1.3-0.4-2.4-1.1-3.3c-0.7-0.9-1.7-1.3-2.8-1.3c-1.1,0-2.1,0.4-2.7,1.3c-0.7,0.9-1,2-1,3.3c0,1.3,0.4,2.4,1.1,3.2
		c0.7,0.9,1.7,1.3,2.8,1.3S274.6,615.6,275.2,614.8z"/>
	<path id="XMLID_185_" d="M285.7,617.8c-1-0.6-1.9-1.4-2.5-2.5c-0.6-1.1-0.9-2.4-0.9-3.8c0-2.2,0.6-3.9,1.8-5.2c1.2-1.3,2.9-2,4.9-2
		c1.2,0,2.2,0.3,3.2,0.9c1,0.6,1.6,1.3,2,2.1l-0.2-2.3v-8.5h3.2v22.1h-3.1L294,616c-0.3,0.7-1,1.4-1.9,1.9s-1.9,0.8-3,0.8
		C287.9,618.7,286.8,618.4,285.7,617.8z M292.6,614.8c0.8-0.8,1.2-1.8,1.2-3.1v-0.2c0-0.9-0.2-1.6-0.5-2.3c-0.4-0.7-0.8-1.2-1.5-1.6
		s-1.3-0.6-2-0.6c-1.3,0-2.3,0.4-3,1.2c-0.7,0.8-1,1.9-1,3.2c0,1.3,0.3,2.4,1,3.3c0.7,0.8,1.7,1.2,3,1.2
		C290.8,616,291.8,615.6,292.6,614.8z"/>
	<path id="XMLID_188_" d="M310.1,607.2h-2.2v-2.6h2.2v-3c0-1.8,0.4-3.2,1.3-4.2c0.9-1,2.1-1.5,3.8-1.5c0.7,0,1.5,0.2,2.3,0.6
		l-0.6,3.1c-0.1-0.2-0.4-0.3-0.6-0.5c-0.3-0.1-0.6-0.2-0.9-0.2c-1.3,0-2,0.9-2,2.6v3.1h3.2v2.6h-3.2v11.2h-3.2V607.2z"/>
	<path id="XMLID_190_" d="M322.3,617.7c-1.1-0.6-1.9-1.5-2.5-2.6c-0.6-1.1-0.9-2.3-0.9-3.7c0-1.3,0.3-2.5,0.9-3.6
		c0.6-1.1,1.4-2,2.5-2.6c1.1-0.6,2.4-1,3.8-1c1.4,0,2.7,0.3,3.8,1c1.1,0.6,1.9,1.5,2.5,2.6c0.6,1.1,0.9,2.3,0.9,3.6
		c0,1.3-0.3,2.6-0.9,3.7c-0.6,1.1-1.4,2-2.5,2.6c-1.1,0.6-2.3,1-3.8,1S323.4,618.4,322.3,617.7z M328.9,614.8c0.7-0.9,1-1.9,1-3.2
		c0-1.3-0.4-2.4-1.1-3.3c-0.7-0.9-1.7-1.3-2.8-1.3c-1.1,0-2.1,0.4-2.7,1.3c-0.7,0.9-1,2-1,3.3c0,1.3,0.4,2.4,1.1,3.2
		c0.7,0.9,1.7,1.3,2.8,1.3S328.3,615.6,328.9,614.8z"/>
	<path id="XMLID_193_" d="M339.4,617.7c-1.1-0.6-1.9-1.5-2.5-2.6c-0.6-1.1-0.9-2.3-0.9-3.7c0-1.3,0.3-2.5,0.9-3.6
		c0.6-1.1,1.4-2,2.5-2.6c1.1-0.6,2.4-1,3.8-1c1.4,0,2.7,0.3,3.8,1c1.1,0.6,1.9,1.5,2.5,2.6c0.6,1.1,0.9,2.3,0.9,3.6
		c0,1.3-0.3,2.6-0.9,3.7c-0.6,1.1-1.4,2-2.5,2.6c-1.1,0.6-2.3,1-3.8,1S340.5,618.4,339.4,617.7z M346,614.8c0.7-0.9,1-1.9,1-3.2
		c0-1.3-0.4-2.4-1.1-3.3c-0.7-0.9-1.7-1.3-2.8-1.3c-1.1,0-2.1,0.4-2.7,1.3c-0.7,0.9-1,2-1,3.3c0,1.3,0.4,2.4,1.1,3.2
		c0.7,0.9,1.7,1.3,2.8,1.3S345.3,615.6,346,614.8z"/>
	<path id="XMLID_196_" d="M356.5,617.8c-1-0.6-1.9-1.4-2.5-2.5c-0.6-1.1-0.9-2.4-0.9-3.8c0-2.2,0.6-3.9,1.8-5.2c1.2-1.3,2.9-2,4.9-2
		c1.2,0,2.2,0.3,3.2,0.9c1,0.6,1.6,1.3,2,2.1l-0.2-2.3v-8.5h3.2v22.1h-3.1l-0.1-2.4c-0.3,0.7-1,1.4-1.9,1.9s-1.9,0.8-3,0.8
		C358.7,618.7,357.5,618.4,356.5,617.8z M363.3,614.8c0.8-0.8,1.2-1.8,1.2-3.1v-0.2c0-0.9-0.2-1.6-0.5-2.3c-0.4-0.7-0.8-1.2-1.5-1.6
		s-1.3-0.6-2-0.6c-1.3,0-2.3,0.4-3,1.2c-0.7,0.8-1,1.9-1,3.2c0,1.3,0.3,2.4,1,3.3c0.7,0.8,1.7,1.2,3,1.2
		C361.6,616,362.6,615.6,363.3,614.8z"/>
	<path id="XMLID_199_" d="M373.4,609.4h10.3v2.9h-10.3V609.4z"/>
</g>
<g id="XMLID_114_">
	<path id="XMLID_129_" d="M180.7,633.7h-1.4v-1.6h1.4v-1.9c0-1.1,0.3-2,0.8-2.7c0.6-0.6,1.4-0.9,2.4-0.9c0.4,0,0.9,0.1,1.5,0.4
		l-0.4,1.9c-0.1-0.1-0.2-0.2-0.4-0.3s-0.4-0.1-0.6-0.1c-0.8,0-1.3,0.6-1.3,1.7v2h2.1v1.6h-2.1v7.1h-2V633.7z"/>
	<path id="XMLID_131_" d="M188.5,640.4c-0.7-0.4-1.2-1-1.6-1.7c-0.4-0.7-0.6-1.5-0.6-2.3c0-0.8,0.2-1.6,0.6-2.3
		c0.4-0.7,0.9-1.2,1.6-1.7c0.7-0.4,1.5-0.6,2.4-0.6s1.7,0.2,2.4,0.6s1.2,1,1.6,1.7c0.4,0.7,0.6,1.5,0.6,2.3c0,0.8-0.2,1.6-0.6,2.3
		c-0.4,0.7-0.9,1.2-1.6,1.7s-1.5,0.6-2.4,0.6S189.2,640.8,188.5,640.4z M192.7,638.5c0.4-0.5,0.6-1.2,0.6-2.1s-0.2-1.5-0.7-2.1
		s-1.1-0.8-1.8-0.8c-0.7,0-1.3,0.3-1.7,0.8c-0.4,0.6-0.7,1.3-0.7,2.1c0,0.8,0.2,1.5,0.7,2c0.5,0.6,1.1,0.8,1.8,0.8
		C191.7,639.3,192.2,639,192.7,638.5z"/>
	<path id="XMLID_134_" d="M199.3,640.4c-0.7-0.4-1.2-1-1.6-1.7c-0.4-0.7-0.6-1.5-0.6-2.3c0-0.8,0.2-1.6,0.6-2.3
		c0.4-0.7,0.9-1.2,1.6-1.7c0.7-0.4,1.5-0.6,2.4-0.6s1.7,0.2,2.4,0.6s1.2,1,1.6,1.7c0.4,0.7,0.6,1.5,0.6,2.3c0,0.8-0.2,1.6-0.6,2.3
		c-0.4,0.7-0.9,1.2-1.6,1.7s-1.5,0.6-2.4,0.6S200,640.8,199.3,640.4z M203.5,638.5c0.4-0.5,0.6-1.2,0.6-2.1s-0.2-1.5-0.7-2.1
		s-1.1-0.8-1.8-0.8c-0.7,0-1.3,0.3-1.7,0.8c-0.4,0.6-0.7,1.3-0.7,2.1c0,0.8,0.2,1.5,0.7,2c0.5,0.6,1.1,0.8,1.8,0.8
		C202.5,639.3,203.1,639,203.5,638.5z"/>
	<path id="XMLID_137_" d="M210.1,640.4c-0.7-0.4-1.2-0.9-1.6-1.6c-0.4-0.7-0.6-1.5-0.6-2.4c0-1.4,0.4-2.5,1.2-3.3
		c0.8-0.8,1.8-1.2,3.1-1.2c0.7,0,1.4,0.2,2,0.5c0.6,0.4,1,0.8,1.2,1.3l-0.1-1.5v-5.4h2v14h-2l0-1.5c-0.2,0.5-0.6,0.9-1.2,1.2
		c-0.6,0.3-1.2,0.5-1.9,0.5C211.5,641,210.8,640.8,210.1,640.4z M214.4,638.5c0.5-0.5,0.7-1.2,0.7-2v-0.1c0-0.5-0.1-1-0.3-1.5
		s-0.5-0.8-0.9-1c-0.4-0.2-0.8-0.4-1.3-0.4c-0.8,0-1.4,0.3-1.9,0.8c-0.4,0.5-0.7,1.2-0.7,2c0,0.8,0.2,1.5,0.7,2.1s1.1,0.8,1.9,0.8
		C213.3,639.2,214,639,214.4,638.5z"/>
	<path id="XMLID_140_" d="M222.6,641l-3.6-9h2.3l1.9,5.5l0.4,1.3l0.4-1.3l2-5.5h2.2l-5.4,13.5h-2.1L222.6,641z"/>
	<path id="XMLID_142_" d="M231.3,640.4c-0.7-0.4-1.2-0.9-1.6-1.6s-0.6-1.5-0.6-2.5c0-0.9,0.2-1.7,0.6-2.4c0.4-0.7,0.9-1.2,1.6-1.6
		c0.7-0.4,1.5-0.6,2.3-0.6c0.7,0,1.3,0.1,1.7,0.3s0.9,0.4,1.1,0.6l-0.9,1.7c-0.5-0.5-1.1-0.8-1.8-0.8c-0.8,0-1.4,0.2-1.9,0.7
		c-0.4,0.5-0.6,1.2-0.6,2c0,0.9,0.2,1.7,0.7,2.2c0.4,0.5,1,0.8,1.8,0.8c0.4,0,0.8-0.1,1.1-0.2c0.4-0.1,0.7-0.2,0.9-0.4l0.7,1.4
		c-0.3,0.2-0.7,0.4-1.2,0.6c-0.5,0.2-1.1,0.3-1.7,0.3C232.7,641,232,640.8,231.3,640.4z"/>
	<path id="XMLID_144_" d="M238.8,640.6c-0.3-0.3-0.4-0.6-0.4-1c0-0.4,0.1-0.7,0.4-1c0.3-0.3,0.6-0.4,1-0.4s0.7,0.1,1,0.4
		c0.3,0.3,0.4,0.6,0.4,1c0,0.4-0.1,0.7-0.4,1c-0.3,0.3-0.6,0.4-1,0.4C239.4,641,239.1,640.8,238.8,640.6z"/>
	<path id="XMLID_146_" d="M246,636.3l-3.1-4.2h2.4l1.8,2.7l1.7-2.7h2.5l-3.1,4.1l3.3,4.6h-2.4l-2.1-3.1l-2,3.1h-2.5L246,636.3z"/>
	<path id="XMLID_148_" d="M255.7,641l-3.6-9h2.3l1.9,5.5l0.4,1.3l0.4-1.3l2-5.5h2.2l-5.4,13.5h-2.1L255.7,641z"/>
	<path id="XMLID_150_" d="M265.7,634.4l0.5-0.7l-2.1,0.1h-1.5v-1.7h6.8l-3.9,6.4l-0.5,0.7l2.1-0.1l2.2,0v1.7h-7.5L265.7,634.4z"/>
</g>
<g id="XMLID_128_">
</g>
<g id="XMLID_201_">
</g>
<g id="XMLID_202_">
</g>
<g id="XMLID_203_">
</g>
<g id="XMLID_204_">
</g>
<g id="XMLID_205_">
</g>
</svg>
