<?xml version="1.0" encoding="utf-8"?>
<!-- Generator: Adobe Illustrator 19.0.0, SVG Export Plug-In . SVG Version: 6.00 Build 0)  -->
<svg version="1.1"
	 id="svg8" xmlns:inkscape="http://www.inkscape.org/namespaces/inkscape" xmlns:sodipodi="http://sodipodi.sourceforge.net/DTD/sodipodi-0.dtd" xmlns:dc="http://purl.org/dc/elements/1.1/" xmlns:cc="http://creativecommons.org/ns#" xmlns:svg="http://www.w3.org/2000/svg" xmlns:rdf="http://www.w3.org/1999/02/22-rdf-syntax-ns#" sodipodi:docname="MySignature.svg" inkscape:version="0.92.4 (5da689c313, 2019-01-14)"
	 xmlns="http://www.w3.org/2000/svg" xmlns:xlink="http://www.w3.org/1999/xlink" x="0px" y="0px" viewBox="-117 281.4 376.9 230.6"
	 style="enable-background:new -117 281.4 376.9 230.6;" xml:space="preserve">
<style type="text/css">
	.st0{fill:#FFFFFF;}
	.st1{fill:#C6C6C6;}
</style>
<sodipodi:namedview  inkscape:cy="406.45061" borderopacity="1.0" pagecolor="#ffffff" inkscape:cx="478.98712" bordercolor="#666666" showgrid="false" inkscape:zoom="0.57769471" id="base" inkscape:window-height="1028" inkscape:window-y="-8" inkscape:window-width="1920" inkscape:current-layer="layer1" inkscape:pageopacity="0.0" inkscape:document-units="mm" inkscape:pageshadow="2" inkscape:window-x="-8" inkscape:window-maximized="1">
	</sodipodi:namedview>
<g>
	<g id="XMLID_5_">
		<g id="XMLID_1_">
			<g>
				<path class="st0" d="M-96.6,382.4c-0.3,0-0.5,0-0.8-0.1c-0.9-0.2-1.7-0.9-2.5-1.9c-0.8-1.2-1.4-2.5-2-3.9c-1-2.3-2-4.5-4-5.4
					l0.7-1.5c2.6,1.2,3.7,3.8,4.9,6.2c0.6,1.2,1.1,2.5,1.9,3.6c0.5,0.7,1,1.2,1.5,1.3c1,0.3,2.1-0.5,3.1-1.4
					c6.7-5.8,13.8-12,20.3-19c-0.2-1.6-0.1-3.2,0.5-4.8c0.4-1,0.9-1.6,1.5-2c0.7-0.3,1.4-0.4,2-0.1c0.4,0.2,0.8,0.5,1.2,0.9
					c2.3-2.8,4.5-5.7,6.5-8.8c-0.5-0.8-0.9-1.7-1.1-2.7c-0.4-1.6-0.4-3.5,0.1-5.5c1-4.3,3.7-8.2,7.4-10.6c0.5-0.4,1.2-0.7,2-0.6
					c0.6,0.1,1,0.4,1.3,0.9c0.5,1,0.3,2.4,0,3.3c-2,5.4-4.6,10.5-7.7,15.2c0.6,1,1.4,1.9,2.1,2.8l0.5,0.7c2.8,3.4,6.9,10,4.7,16
					c0.2-0.2,0.4-0.5,0.6-0.7c3-4,4.1-9.1,5.1-13.7c0.1-0.4,0.5-0.7,1-0.6c0.4,0.1,0.7,0.5,0.7,1c-0.7,3.7-1.1,7.4-1,11.2
					c0,1.2,0.1,2.6,0.8,3.5c1,1.3,3.2,1.3,4.6,0.6c1.8-0.9,2.9-2.9,3.6-4.3c1-1.9,1.7-4,2.2-6.1c0.2-1.9,0.5-3.9,0.8-5.8
					c0.1-0.4,0.5-0.7,0.9-0.7s0.8,0.4,0.7,0.9c-0.1,2-0.3,4-0.8,5.9c-0.2,2.5-0.4,5.1-0.3,7.6c0,1.3,0.1,2.7,0.6,3.8
					c0.7,1.3,1.8,1.8,2.7,2.1c1.6,0.5,3.6,0.2,5-0.7c2.9-1.7,4.4-5.3,5.3-7.7c0.4-1,0.7-2.1,1-3.1c0.3-4.9,0.4-9.9,0.5-14.8
					c0-1.1,0-3.1,1.5-4.1c0.2-0.2,0.6-0.2,0.8-0.1c0.3,0.1,0.5,0.4,0.5,0.7c0.6,6.2,0,12.5-1.7,18.5c-0.1,1.3-0.2,2.6-0.2,3.9
					c0.6-0.7,1.3-1.4,1.9-2c3.7-3.9,7.9-8.4,13.3-10.8c0.3-0.2,0.7-0.1,1,0.2c1.5,1.8,0.3,4.2-1.3,5.9c-1.8,1.9-3.9,3.7-6,5.2
					c1.3,0.8,2.5,2,3.6,3.7c0.3,0.5,0.6,1,1,1.4c1.1,1.7,2.2,3.3,3.7,4.4c0.9,0.6,1.1,0.5,1.1,0.5c0.2-0.1,0.6-0.9,0.9-1.5
					c0.1-0.2,0.2-0.4,0.3-0.7l1.5,0.8c-0.1,0.2-0.2,0.5-0.3,0.7c-0.6,1.2-1,2.1-2,2.3c-0.9,0.2-1.7-0.3-2.5-0.8
					c-1.8-1.2-3-3.1-4.2-4.9c-0.3-0.5-0.6-0.9-0.9-1.4c-0.9-1.3-2.2-2.8-3.8-3.5c-1.4,0.9-2.9,1.7-4.4,2.5c-0.2,0.1-0.5,0.1-0.7,0
					s-0.4-0.3-0.5-0.5c-0.1-0.3-0.1-0.5-0.1-0.8c-0.6,0.7-1.2,1.4-1.8,2.2c-0.2,3.1-0.5,6.1-0.8,9.2c0,0.3-0.3,0.6-0.6,0.7
					s-0.7,0-0.9-0.3c-1.5-2.2-1.6-5.3-0.4-8.2c0.3-0.7,0.7-1.3,1-1.9c0-0.2,0-0.4,0-0.6c-1,2.3-2.6,4.8-5.1,6.3
					c-1.8,1.1-4.3,1.4-6.3,0.8c-1.7-0.5-3-1.5-3.7-2.9s-0.8-3-0.8-4.5c0-0.6,0-1.3,0-1.9c-0.1,0.3-0.3,0.5-0.4,0.8
					c-0.8,1.6-2.1,3.8-4.3,5c-2,1.1-5.1,1-6.7-1c-1-1.3-1.1-3-1.1-4.5c0-0.6,0-1.2,0-1.7c-0.7,1.7-1.6,3.4-2.7,4.9
					c-1.5,2-3.7,3.9-6.3,5c-2.1,1.3-4.6,2.1-6.8,2.3c-1.1,0.1-2.4,0.2-3.7-0.4c-1.3-0.7-2.1-1.9-2.8-3.1c-1.2-2.1-2.4-4.4-3.1-6.7
					c-6.3,6.7-13.1,12.7-19.6,18.2C-93.5,381.1-94.9,382.4-96.6,382.4z M-71.8,360.8c0.5,2.5,1.8,5,3.1,7.3c0.6,1.1,1.2,2,2.2,2.5
					c0.8,0.4,1.8,0.4,2.7,0.3c-0.2-0.1-0.5-0.1-0.7-0.2c-0.6-0.2-1.5-0.6-2.1-1.4c-0.6-0.9-0.6-1.9-0.6-2.7c0-3.2-0.4-6.2-1.3-9.2
					v-0.1C-69.6,358.4-70.7,359.6-71.8,360.8z M-67.4,355.7c0.2,0.4,0.3,0.7,0.4,1.1c0.9,3.1,1.4,6.4,1.4,9.6c0,0.8,0,1.4,0.3,1.9
					c0.2,0.3,0.6,0.6,1.2,0.8c2.2,0.7,4.5,0.5,6.6-0.4c1.3-0.9,2.5-2.1,3.2-3.5c2.6-5.4-1.5-11.7-4.2-15l-0.5-0.7
					c-0.6-0.8-1.2-1.5-1.8-2.3C-62.9,350.1-65.1,353-67.4,355.7z M-12.1,359C-12.1,359-12,359-12.1,359c0.6,0,1,0.5,1.5,0.6
					c2.4-1.6,4.6-3.3,6.6-5.4c0.7-0.7,1.7-2,1.5-3c-4.1,2.1-7.5,5.1-10.6,8.3C-12.8,359.4-12.4,359-12.1,359z M-70.5,354.9
					c-0.1,0-0.2,0-0.3,0.1c-0.3,0.1-0.5,0.5-0.7,1c-0.3,0.8-0.4,1.7-0.5,2.5c0.9-1,1.7-1.9,2.6-2.9c-0.2-0.3-0.5-0.5-0.8-0.6
					C-70.3,354.9-70.4,354.9-70.5,354.9z M-53.8,327.8c-0.2,0-0.6,0.2-0.7,0.3c-3.4,2.2-5.8,5.7-6.7,9.6c-0.4,1.7-0.4,3.3-0.1,4.7
					c0.1,0.5,0.3,1,0.5,1.5c2.8-4.5,5.2-9.2,7.1-14.2c0.3-0.7,0.3-1.5,0.1-1.8C-53.6,327.8-53.7,327.8-53.8,327.8L-53.8,327.8z"/>
			</g>
		</g>
		<g id="XMLID_3_">
			<g>
				<path class="st0" d="M50.1,434.6c-0.2,0-0.4,0-0.6-0.1c-0.5-0.3-0.8-0.8-0.9-1c-6.4-12.6-5.7-28.5,1.7-40.6
					c2-3.3,4.2-5.7,6.7-7.5c1.4-1,2.8-2,4.2-3c1.5-5.4,3.4-10.8,5.8-15.9c0.3-0.7,0.6-1.4,1-2c1.3-2.8,2.7-5.7,3.4-8.6
					c-1.1,2.2-2.3,4.6-4.1,6.4c-1.9,1.9-4.9,2.9-7.4,2.6c-1.8-0.2-3.3-1.2-4.1-2.6c-1.3-2.3-0.7-4.8,0-7.3c0-0.2,0.1-0.3,0.1-0.5
					c-2,2.9-4.3,5.5-6.9,7.9c-2.4,2.1-4.1,2-5.1,1.5c-1.3-0.6-1.8-2-2.1-3.2c-0.6-2.4-0.9-4.8-0.9-7.2c-2.1,4.4-5,8.4-8.4,11.9
					c-1,1-2.7,2-4.2,1.9c-0.8-0.1-1.4-0.5-1.8-1.2c-0.6-1-0.3-2.3-0.1-3l1.3-5.1l-0.8,1.6c-1,1.9-2.2,4.2-4.2,5.7
					c-2.2,1.5-3,0.8-4.4-0.7l-0.3-0.4c-2-2.2-2.8-4.8-3-7.4c-1.5,5.2-3.5,9.8-8.9,13.1c-0.9,0.6-2.3,1.1-3.5,0.8
					c-0.6-0.2-1.2-0.5-1.5-1.1c-0.5-0.8-0.4-1.7-0.2-2.5c1.1-6.1,4.2-11.9,8.6-16.3c2.4-2.4,4.8-3.3,6.9-2.6
					c0.4,0.1,0.6,0.5,0.6,0.8c0,0.6-0.1,1.2-0.1,1.9c-0.3,3.9-0.7,8.6,2.5,12.1l0.4,0.4c1.1,1.2,1.1,1.2,2.2,0.4
					c1.7-1.2,2.8-3.3,3.7-5.1l4.2-8.3c0.2-0.4,0.6-0.6,1-0.4c0.4,0.2,0.6,0.6,0.5,1l-3.1,12.3c-0.2,0.7-0.3,1.3-0.1,1.8
					c0.1,0.2,0.3,0.3,0.5,0.4c0.7,0.1,1.9-0.5,2.8-1.4c4.5-4.6,8-10.2,10.1-16.3c0.1-0.4,0.6-0.7,1-0.5c0.4,0.1,0.7,0.5,0.6,1
					c-0.7,4-0.6,8.1,0.4,12c0.2,0.8,0.5,1.8,1.2,2.1c1,0.5,2.3-0.4,3.2-1.2c3.5-3.1,6.4-6.8,8.7-10.9c0.2-0.3,0.6-0.5,0.9-0.4
					c0.4,0.1,0.6,0.4,0.6,0.8c0.1,1.6-0.3,3.2-0.7,4.8c-0.6,2.2-1.1,4.3-0.1,6c0.7,1.3,2,1.7,2.9,1.8c2,0.3,4.5-0.6,6-2.1
					c1.7-1.7,2.7-3.8,3.9-6c0.7-1.3,1.3-2.7,2.1-3.9c0.2-0.3,0.6-0.5,0.9-0.4c0.4,0.1,0.6,0.4,0.6,0.8c0,4.8-2.1,9.3-4.1,13.6
					c-0.3,0.7-0.6,1.4-1,2c-2,4.4-3.7,9-5.1,13.7c0.6-0.4,1.2-0.8,1.8-1.2c5.5-3.8,11.2-7.6,16-12c-0.1,0-0.1,0-0.2,0
					c-1,0.2-2,0-2.8-0.6c-1.6-1.1-2.1-3.4-1.3-6.1c1-3.5,2.9-6.8,5.5-9.3c1.5-1.4,3.7-2.6,5.5-1.4c0.6,0.4,1,1,1.3,1.8
					c0.3,0.2,0.5,0.5,0.4,0.8c0,0.3-0.1,0.5-0.1,0.8c0,0.1,0,0.1,0,0.2c0.1,0.9,0,1.8-0.1,2.7c0.1,1.5,0.6,3,1.2,4.4
					c0.7,1.4,1.4,2.3,2.3,2.7s2.2,0.1,2.5-0.7l1.5,0.7c-0.8,1.8-3.1,2.3-4.7,1.6c-1.3-0.5-2.4-1.7-3.2-3.5c-0.2-0.4-0.4-0.9-0.6-1.4
					c-0.8,2.2-2,4.3-3.6,6c-5.4,5.6-12.2,10.3-18.9,14.8c-1.1,0.8-2.3,1.5-3.4,2.3c-2.4,8.7-4.1,17.6-5.7,26.3
					c-1.4,7.5-2.8,15.3-4.7,22.8c-0.2,0.7-0.6,1.6-1.4,2C50.5,434.5,50.3,434.6,50.1,434.6z M60.4,384.8c-0.8,0.6-1.7,1.2-2.5,1.8
					c-2.3,1.7-4.3,4-6.3,7.1c-7.2,11.5-7.8,26.8-1.7,38.9c0,0,0.1,0.1,0.1,0.2c0.1-0.1,0.3-0.4,0.4-0.8c1.9-7.5,3.3-15.2,4.7-22.7
					C56.7,401.2,58.2,392.9,60.4,384.8z M14.5,349.5c-1.6,0-3.2,1.2-4.3,2.4c-4.2,4.1-7,9.6-8.1,15.4c-0.1,0.5-0.2,1,0,1.4
					c0.1,0.2,0.2,0.3,0.4,0.3c0.5,0.1,1.4-0.1,2.2-0.6c6.2-3.8,7.5-9.3,9.2-16.3C14.2,351.2,14.4,350.4,14.5,349.5
					C14.6,349.5,14.5,349.5,14.5,349.5z M86.1,351.4c-0.9,0-1.9,0.7-2.6,1.4c-2.4,2.4-4.2,5.3-5.1,8.6c-0.2,0.8-0.8,3.3,0.6,4.3
					c0.4,0.3,0.9,0.4,1.5,0.3c1.4-0.3,2.8-1.7,3.6-3c1.8-2.9,3-6.1,3.6-9.5c-0.1-1-0.4-1.6-0.8-1.9
					C86.6,351.5,86.4,351.4,86.1,351.4z"/>
			</g>
		</g>
		<g id="XMLID_4_">
			<g>
				<path class="st0" d="M154.9,377c-2,0-3.8-0.6-5.1-1.8c-2.6,0.2-5.3-0.8-7.2-2.8c-1.3-1.3-2.3-2.9-2.9-4.7
					c-0.2,0.2-0.4,0.5-0.6,0.7c-1.5,1.6-3.6,3.8-6.3,4.3c-1.6,0.3-3.5-0.2-4.7-1.3c-1-0.9-1.5-2-1.4-3.2l1.7,0.1
					c-0.1,0.8,0.4,1.5,0.8,1.8c0.9,0.8,2.2,1.1,3.3,0.9c2-0.4,3.7-2,5.4-3.8c0.5-0.5,0.9-1,1.4-1.4c-0.4-2-0.4-4.3,0-6.8
					c0.2-1,0.8-1.7,1.8-2c0.9-0.3,1.9,0.1,2.6,0.8c0.5,0.6,0.9,1.2,1.4,1.8c2.2-2.5,4.4-5.2,6.5-7.9c-0.1-0.2-0.1-0.5-0.2-0.7
					c-0.8-3.5-0.5-6.7,0.8-9.2c1.7-3.1,5.2-4.9,8.3-4.3c0.2,0,0.5,0.2,0.6,0.4c0.1,0.2,0.1,0.5,0,0.7c-2,4.8-4.7,9.2-7.7,13.4
					c0.5,1.5,1.1,2.9,1.6,4.3c0.7,1.8,1.5,3.7,2,5.6c1.2,4.8,0.2,10.9-4.9,12.8c1.5,0.7,3.3,0.7,4.7,0.4c2.4-0.5,4.5-2,6.5-3.3
					l2.8-1.9c-1-1.6-1.2-3.8-0.6-6.1c1.3-5.2,5.9-9.5,11.2-10.4c0.6-0.1,1.4-0.2,2.1,0.1c0.8,0.4,1.4,1.2,1.6,2.3
					c0.4,0.1,0.7,0.5,0.7,0.9l-1.2,8.3c-0.1,0.6-0.1,1.1,0,1.4c0.2,0.4,0.7,0.6,1,0.7c2.4,0.9,5-0.7,7.5-2.6c1-0.8,2.1-1.5,3.1-2.3
					c1.7-7.7,4.1-15.3,7.2-22.6c0.9-2.1,2-4.3,4.1-5.4c1.4-0.7,2.9-0.8,4.2-0.2c2.6,1.3,2.4,4.4,2.3,5.4c-0.5,6.6-4.1,12.1-7.1,15.5
					c-2.7,3.2-5.9,5.8-9.2,8.3c-0.5,2.3-0.9,4.7-1.3,7.1l4.1-7.1c1.2-2.1,2.6-4.5,5.2-5.7c1.9-0.9,4-0.7,5.4,0.5
					c1.9,1.5,1.9,3.8,1.9,6.1c0,1.7,0.1,3.2,0.8,4.4c0.7,1.2,2.2,1.9,4,2.1c1.5,0.2,3,0,4.5-0.6c-0.2-0.2-0.4-0.5-0.5-0.7
					c-1.7-2.8-0.9-5.9,0.1-8.4c1.4-3.6,3.3-6.9,5.8-9.9c0.7-0.9,2.2-2.7,4.5-2.2c1.3,0.3,2.5,1.3,3,2.7c0.6,1.5,0.5,3,0.1,4.4
					l0.3,1.4l-0.8,0.2c-0.1,0.3-0.2,0.5-0.3,0.8c-1,3.3-2.4,6.5-3.9,9.5c-0.7,1.3-2,3.9-5,3.8c-0.6,0-1.2-0.2-1.7-0.4
					c-2,0.9-4.2,1.3-6.2,1.1c-2.3-0.3-4.2-1.3-5.2-2.9c-1-1.6-1-3.5-1-5.3c0-2-0.1-3.8-1.3-4.8c-0.9-0.8-2.3-0.9-3.6-0.3
					c-2.1,1-3.3,3-4.4,5l-6.2,10.9c-0.2,0.3-0.6,0.5-1,0.4c-0.4-0.1-0.6-0.5-0.6-0.9c0.4-3.2,0.9-6.4,1.5-9.6
					c-0.5,0.4-1.1,0.8-1.6,1.2c-2.7,2-5.9,3.9-9.1,2.8c-0.9-0.3-1.6-0.9-1.9-1.6c-0.4-0.8-0.3-1.7-0.2-2.3v-0.3
					c-0.9,1.8-2,3.5-3.3,5.1c-0.9,1.1-2.9,3.6-6,2.7c-0.7-0.2-1.3-0.6-1.8-1l-2.9,2c-2.1,1.4-4.4,3-7.1,3.6
					C156.3,376.9,155.6,377,154.9,377z M141,366.2c0.5,1.9,1.4,3.6,2.7,4.9c1.3,1.4,3,2.2,4.7,2.3c-0.7-1.2-0.9-2.6-1.2-3.9
					c-0.1-0.3-0.1-0.7-0.2-1c-0.5-2.2-1.3-4.3-2.4-6.2C143.4,363.7,142.2,365,141,366.2z M145.8,361c1.3,2.2,2.3,4.7,2.9,7.2
					c0.1,0.3,0.1,0.7,0.2,1c0.3,1.6,0.6,3.1,1.5,4.2c0.3-0.1,0.7-0.2,1-0.3c4.2-1.6,4.9-6.6,3.8-10.8c-0.5-1.8-1.2-3.6-1.9-5.4
					c-0.5-1.1-0.9-2.2-1.3-3.3C150,356.2,147.9,358.6,145.8,361z M168.4,370.2c0.3,0.2,0.5,0.3,0.8,0.4c1.7,0.5,2.9-0.5,4.2-2.1
					c0.9-1.2,1.8-2.4,2.5-3.7c-1.2,1.1-2.5,2.1-3.9,3L168.4,370.2z M223.5,368l-0.1,0.1c-0.7,0.7-1.5,1.3-2.3,1.9
					C222.1,369.8,222.8,369.1,223.5,368z M226.4,350.5c-0.9,0-1.6,0.6-2.5,1.7c-2.3,2.8-4.2,6-5.5,9.4c-0.8,2.1-1.5,4.7-0.2,6.9
					c0.2,0.3,0.5,0.6,0.7,0.9c1.2-0.6,2.3-1.4,3.3-2.4c2.8-2.7,4.5-6.3,5.7-9.2c0.2-0.8,0.5-1.5,0.7-2.3c0-0.1,0.1-0.3,0.2-0.4
					c0.2-1,0.2-2-0.2-2.9c-0.3-0.9-1-1.5-1.8-1.6C226.6,350.5,226.5,350.5,226.4,350.5z M177.4,354.9c-0.2,0-0.4,0-0.6,0.1
					c-4.7,0.8-8.7,4.5-9.8,9.1c-0.3,1.4-0.5,3.3,0.4,4.8l3.8-2.6c3.8-2.6,7.6-5.7,7.4-9.8c0-0.6-0.2-1.3-0.7-1.5
					C177.7,355,177.5,354.9,177.4,354.9z M141.6,358.5c-0.1,0-0.2,0-0.2,0c-0.1,0-0.5,0.2-0.6,0.7c-0.3,1.8-0.3,3.5-0.2,5
					c1-1.1,2.1-2.2,3.1-3.3c-0.5-0.7-1-1.4-1.5-2C142,358.6,141.8,358.5,141.6,358.5z M204.9,335.3c-0.5,0-1,0.1-1.5,0.4
					c-1.7,0.9-2.5,2.7-3.3,4.6c-2.8,6.6-5,13.4-6.7,20.4c2.6-2.1,5.2-4.3,7.4-6.9c2.8-3.2,6.2-8.3,6.7-14.5c0.1-2-0.3-3.2-1.4-3.8
					C205.6,335.4,205.2,335.3,204.9,335.3z M158.9,339c-2.1,0-4.3,1.4-5.4,3.5c-1.1,2-1.4,4.6-0.8,7.3
					C155.1,346.4,157.2,342.8,158.9,339z"/>
			</g>
		</g>
		<g id="XMLID_8_">
			<g>
				<path class="st0" d="M235.2,367.2c-0.6,0-1.1-0.1-1.6-0.3c-1.9-0.7-3.3-2.6-4-5.2c-0.2-0.9-0.3-1.8-0.4-2.6
					c-0.2-1.1-0.3-2.2-0.6-3.2l1.6-0.5c0.4,1.2,0.5,2.3,0.7,3.5c0.1,0.9,0.2,1.7,0.4,2.5c0.2,1,1,3.3,2.9,4c1.2,0.4,2.6,0.1,3.7-0.8
					c1-0.8,1.7-2.1,2.2-3.7l1.6,0.5c-0.6,1.9-1.5,3.5-2.8,4.5C237.8,366.7,236.5,367.2,235.2,367.2z"/>
			</g>
		</g>
		<g id="XMLID_7_">
			<g>
				<path class="st0" d="M247,361.1c-2.5-0.1-2.7,4.1-0.2,4.2C249.3,365.4,249.5,361.2,247,361.1z"/>
			</g>
		</g>
	</g>
	<g>
		<path class="st1" d="M-29.2,461c-1.5-0.4-2.6-1-3.5-1.8l1.3-3c0.8,0.7,1.9,1.2,3.1,1.6c1.2,0.4,2.4,0.6,3.7,0.6
			c1.5,0,2.7-0.2,3.4-0.7s1.1-1.1,1.1-1.9c0-0.6-0.2-1.1-0.6-1.4c-0.4-0.4-1-0.7-1.6-0.9c-0.6-0.2-1.5-0.5-2.6-0.7
			c-1.6-0.4-2.8-0.7-3.8-1.1s-1.8-1-2.5-1.7s-1-1.9-1-3.2c0-1.1,0.3-2.2,0.9-3.1c0.6-0.9,1.5-1.7,2.8-2.2c1.2-0.5,2.8-0.8,4.5-0.8
			c1.2,0,2.5,0.2,3.7,0.5s2.3,0.8,3.1,1.3l-1.2,3c-0.9-0.5-1.8-0.9-2.8-1.2c-1-0.3-1.9-0.4-2.8-0.4c-1.5,0-2.6,0.3-3.4,0.8
			c-0.7,0.5-1.1,1.2-1.1,2c0,0.6,0.2,1.1,0.6,1.4c0.4,0.4,1,0.7,1.6,0.9c0.6,0.2,1.5,0.5,2.6,0.7c1.5,0.4,2.8,0.7,3.7,1.1
			c1,0.4,1.8,1,2.5,1.7c0.7,0.8,1,1.8,1,3.2c0,1.1-0.3,2.2-0.9,3.1c-0.6,0.9-1.5,1.6-2.8,2.2c-1.2,0.5-2.8,0.8-4.6,0.8
			C-26.2,461.7-27.7,461.5-29.2,461z"/>
		<path class="st1" d="M2.2,445.8v15.6h-3.5v-2c-0.6,0.7-1.3,1.2-2.2,1.6s-1.8,0.6-2.8,0.6c-2.1,0-3.7-0.6-4.9-1.7
			c-1.2-1.2-1.8-2.9-1.8-5.2v-8.9h3.7v8.4c0,1.4,0.3,2.5,1,3.1c0.6,0.7,1.5,1,2.7,1c1.3,0,2.3-0.4,3.1-1.2c0.8-0.8,1.2-2,1.2-3.5
			v-7.9h3.5V445.8z"/>
		<path class="st1" d="M13.4,454.7l-2.7,2.6v4.1H7v-21.7h3.7v13.1l7.6-7h4.4l-6.5,6.6l7.1,9.1h-4.4L13.4,454.7z"/>
		<path class="st1" d="M36.6,447.3c1.2,1.1,1.8,2.8,1.8,5v9.2h-3.5v-1.9c-0.4,0.7-1.1,1.2-1.9,1.6c-0.8,0.4-1.8,0.5-3,0.5
			s-2.2-0.2-3.1-0.6c-0.9-0.4-1.6-1-2-1.7s-0.7-1.5-0.7-2.4c0-1.4,0.5-2.5,1.6-3.4s2.7-1.3,4.9-1.3h4v-0.2c0-1.1-0.3-1.9-1-2.5
			s-1.6-0.9-2.9-0.9c-0.9,0-1.7,0.1-2.6,0.4c-0.8,0.3-1.6,0.7-2.2,1.1l-1.4-2.7c0.8-0.6,1.8-1.1,3-1.4s2.4-0.5,3.7-0.5
			C33.6,445.6,35.3,446.2,36.6,447.3z M33.2,458.3c0.7-0.4,1.2-1,1.5-1.8v-1.8h-3.8c-2.1,0-3.2,0.7-3.2,2.1c0,0.7,0.3,1.2,0.8,1.6
			s1.3,0.6,2.2,0.6C31.7,459,32.5,458.8,33.2,458.3z"/>
		<path class="st1" d="M56.7,447.3c1.2,1.2,1.8,2.9,1.8,5.1v9h-3.7v-8.5c0-1.4-0.3-2.4-1-3.1c-0.6-0.7-1.6-1-2.8-1
			c-1.3,0-2.4,0.4-3.2,1.2c-0.8,0.8-1.2,2-1.2,3.5v7.9h-3.7v-15.6h3.5v2c0.6-0.7,1.4-1.3,2.3-1.6c0.9-0.4,2-0.6,3.1-0.6
			C53.9,445.6,55.5,446.2,56.7,447.3z"/>
		<path class="st1" d="M77.4,445.8l-7.3,16.9c-0.7,1.7-1.5,2.9-2.5,3.6s-2.2,1-3.5,1c-0.8,0-1.6-0.1-2.3-0.4
			c-0.8-0.3-1.4-0.6-1.9-1.1l1.5-2.7c0.4,0.3,0.8,0.6,1.2,0.8c0.5,0.2,1,0.3,1.4,0.3c0.6,0,1.2-0.2,1.6-0.5s0.8-0.9,1.2-1.7l0.3-0.6
			l-6.8-15.7h3.8l4.9,11.6l4.9-11.6h3.5V445.8z"/>
		<path class="st1" d="M90.5,447.3c1.2,1.1,1.8,2.8,1.8,5v9.2h-3.5v-1.9c-0.4,0.7-1.1,1.2-1.9,1.6s-1.8,0.5-3,0.5s-2.2-0.2-3.1-0.6
			s-1.6-1-2-1.7s-0.7-1.5-0.7-2.4c0-1.4,0.5-2.5,1.6-3.4c1-0.8,2.7-1.3,4.9-1.3h4v-0.2c0-1.1-0.3-1.9-1-2.5s-1.6-0.9-2.9-0.9
			c-0.9,0-1.7,0.1-2.6,0.4c-0.8,0.3-1.6,0.7-2.2,1.1l-1.4-2.7c0.8-0.6,1.8-1.1,3-1.4s2.4-0.5,3.7-0.5
			C87.5,445.6,89.3,446.2,90.5,447.3z M87.1,458.3c0.7-0.4,1.2-1,1.5-1.8v-1.8h-3.8c-2.1,0-3.2,0.7-3.2,2.1c0,0.7,0.3,1.2,0.8,1.6
			s1.3,0.6,2.2,0.6C85.6,459,86.4,458.8,87.1,458.3z"/>
		<path class="st1" d="M107.2,461c-1.5-0.4-2.6-1-3.5-1.8l1.3-3c0.8,0.7,1.9,1.2,3.1,1.6s2.4,0.6,3.7,0.6c1.5,0,2.7-0.2,3.4-0.7
			c0.8-0.5,1.1-1.1,1.1-1.9c0-0.6-0.2-1.1-0.6-1.4c-0.4-0.4-1-0.7-1.6-0.9c-0.6-0.2-1.5-0.5-2.6-0.7c-1.6-0.4-2.8-0.7-3.8-1.1
			s-1.8-1-2.5-1.7c-0.7-0.8-1-1.9-1-3.2c0-1.1,0.3-2.2,0.9-3.1s1.5-1.7,2.8-2.2c1.2-0.5,2.8-0.8,4.5-0.8c1.2,0,2.5,0.2,3.7,0.5
			c1.2,0.3,2.3,0.8,3.1,1.3l-1.2,3c-0.9-0.5-1.8-0.9-2.8-1.2c-1-0.3-1.9-0.4-2.8-0.4c-1.5,0-2.6,0.3-3.4,0.8c-0.7,0.5-1.1,1.2-1.1,2
			c0,0.6,0.2,1.1,0.6,1.4c0.4,0.4,1,0.7,1.6,0.9c0.6,0.2,1.5,0.5,2.6,0.7c1.5,0.4,2.8,0.7,3.7,1.1c1,0.4,1.8,1,2.5,1.7
			c0.7,0.8,1,1.8,1,3.2c0,1.1-0.3,2.2-0.9,3.1c-0.6,0.9-1.5,1.6-2.8,2.2s-2.8,0.8-4.6,0.8C110.2,461.7,108.7,461.5,107.2,461z"/>
		<path class="st1" d="M134.7,447.3c1.2,1.1,1.8,2.8,1.8,5v9.2H133v-1.9c-0.4,0.7-1.1,1.2-1.9,1.6c-0.8,0.4-1.8,0.5-3,0.5
			c-1.2,0-2.2-0.2-3.1-0.6c-0.9-0.4-1.6-1-2-1.7s-0.7-1.5-0.7-2.4c0-1.4,0.5-2.5,1.6-3.4c1-0.8,2.7-1.3,4.9-1.3h4v-0.2
			c0-1.1-0.3-1.9-1-2.5c-0.7-0.6-1.6-0.9-2.9-0.9c-0.9,0-1.7,0.1-2.6,0.4c-0.8,0.3-1.6,0.7-2.2,1.1l-1.4-2.7c0.8-0.6,1.8-1.1,3-1.4
			s2.4-0.5,3.7-0.5C131.7,445.6,133.5,446.2,134.7,447.3z M131.4,458.3c0.7-0.4,1.2-1,1.5-1.8v-1.8h-3.8c-2.1,0-3.2,0.7-3.2,2.1
			c0,0.7,0.3,1.2,0.8,1.6s1.3,0.6,2.2,0.6C129.9,459,130.7,458.8,131.4,458.3z"/>
		<path class="st1" d="M154.8,447.3c1.2,1.2,1.8,2.9,1.8,5.1v9H153v-8.5c0-1.4-0.3-2.4-1-3.1s-1.6-1-2.8-1c-1.3,0-2.4,0.4-3.2,1.2
			s-1.2,2-1.2,3.5v7.9h-3.7v-21.7h3.7v7.9c0.6-0.6,1.3-1.1,2.2-1.5c0.9-0.3,1.9-0.5,3-0.5C152.1,445.6,153.6,446.2,154.8,447.3z"/>
		<path class="st1" d="M172.5,447.3c1.2,1.1,1.8,2.8,1.8,5v9.2h-3.5v-1.9c-0.4,0.7-1.1,1.2-1.9,1.6c-0.8,0.4-1.8,0.5-3,0.5
			c-1.2,0-2.2-0.2-3.1-0.6c-0.9-0.4-1.6-1-2-1.7c-0.4-0.7-0.7-1.5-0.7-2.4c0-1.4,0.5-2.5,1.6-3.4c1-0.8,2.7-1.3,4.9-1.3h4v-0.2
			c0-1.1-0.3-1.9-1-2.5c-0.7-0.6-1.6-0.9-2.9-0.9c-0.9,0-1.7,0.1-2.6,0.4c-0.8,0.3-1.6,0.7-2.2,1.1l-1.4-2.7c0.8-0.6,1.8-1.1,3-1.4
			s2.4-0.5,3.7-0.5C169.5,445.6,171.3,446.2,172.5,447.3z M169.2,458.3c0.7-0.4,1.2-1,1.5-1.8v-1.8h-3.8c-2.1,0-3.2,0.7-3.2,2.1
			c0,0.7,0.3,1.2,0.8,1.6s1.3,0.6,2.2,0.6C167.7,459,168.5,458.8,169.2,458.3z"/>
	</g>
</g>
</svg>
